<svg id="Camada_1" data-name="Camada 1" xmlns="http://www.w3.org/2000/svg" xmlns:xlink="http://www.w3.org/1999/xlink" viewBox="0 0 235.59 101.43"><defs><style>.cls-1{fill:none;}.cls-2{fill:#4353a0;}.cls-3{clip-path:url(#clip-path);}.cls-4{fill:url(#linear-gradient);}.cls-5{clip-path:url(#clip-path-2);}.cls-6{fill:url(#linear-gradient-2);}.cls-7{fill:#2863a6;}.cls-8{clip-path:url(#clip-path-3);}.cls-9{fill:url(#linear-gradient-3);}.cls-10{clip-path:url(#clip-path-4);}.cls-11{fill:url(#linear-gradient-4);}.cls-12{clip-path:url(#clip-path-5);}.cls-13{fill:url(#linear-gradient-5);}.cls-14{clip-path:url(#clip-path-6);}.cls-15{fill:url(#linear-gradient-6);}.cls-16{clip-path:url(#clip-path-7);}.cls-17{fill:url(#linear-gradient-7);}.cls-18{clip-path:url(#clip-path-8);}.cls-19{fill:url(#linear-gradient-8);}.cls-20{clip-path:url(#clip-path-9);}.cls-21{fill:url(#linear-gradient-9);}.cls-22{clip-path:url(#clip-path-10);}.cls-23{fill:url(#linear-gradient-10);}.cls-24{fill:#fff;opacity:0.11;isolation:isolate;}.cls-25{clip-path:url(#clip-path-11);}.cls-26{fill:url(#linear-gradient-11);}.cls-27{clip-path:url(#clip-path-12);}.cls-28{fill:url(#linear-gradient-12);}</style><clipPath id="clip-path"><path class="cls-1" d="M124.76,36.8S115,38.09,114,26.55c-.36-3.89-4.18-11.91-18.27-11.91H88.25S67.09,14.8,67.09,2.52h41.45s13.14-.19,13.14,13.15Z"/></clipPath><linearGradient id="linear-gradient" x1="122.36" y1="-38.68" x2="64.69" y2="-38.68" gradientTransform="matrix(1, 0, 0, -1, 2.4, -18.47)" gradientUnits="userSpaceOnUse"><stop offset="0" stop-color="#4775b8"/><stop offset="0.5" stop-color="#65a9df"/><stop offset="1" stop-color="#4775b8"/></linearGradient><clipPath id="clip-path-2"><path class="cls-1" d="M124.76,36.8s-8.4,1.42-8.4-7-.79-17.92-15.14-17.92H78.3S66.65,12.89,66.65.21h43.83S124.69,0,124.69,14.43Z"/></clipPath><linearGradient id="linear-gradient-2" x1="122.36" y1="-37.59" x2="64.25" y2="-37.59" gradientTransform="matrix(1, 0, 0, -1, 2.4, -18.47)" gradientUnits="userSpaceOnUse"><stop offset="0" stop-color="#00acec"/><stop offset="1" stop-color="#4775b8"/></linearGradient><clipPath id="clip-path-3"><path class="cls-1" d="M116.36,29.78a47.43,47.43,0,0,0-.29-5.93q4.14.94,8.66,1.64l0,11.32s-8.4,1.42-8.4-7"/></clipPath><linearGradient id="linear-gradient-3" x1="122.36" y1="-49.51" x2="113.67" y2="-49.51" gradientTransform="matrix(1, 0, 0, -1, 2.4, -18.47)" gradientUnits="userSpaceOnUse"><stop offset="0" stop-color="#4c97d4"/><stop offset="1" stop-color="#4775b8"/></linearGradient><clipPath id="clip-path-4"><path class="cls-1" d="M84.46,2.52c0,3.31,1.68,6.46,4.73,9.35H78.31S66.65,12.89,66.65.21H84.74a9.92,9.92,0,0,0-.28,2.31"/></clipPath><linearGradient id="linear-gradient-4" x1="86.79" y1="-25.02" x2="64.25" y2="-25.02" xlink:href="#linear-gradient-3"/><clipPath id="clip-path-5"><path class="cls-1" d="M0,64.63s9.72-1.29,10.79,10.25c.36,3.88,4.18,11.91,18.27,11.91h7.46s21.15-.15,21.15,12.13H16.23S3.08,99.1,3.08,85.76Z"/></clipPath><linearGradient id="linear-gradient-5" x1="-2.4" y1="-99.69" x2="55.37" y2="-99.69" xlink:href="#linear-gradient"/><clipPath id="clip-path-6"><path class="cls-1" d="M0,64.63s8.41-1.42,8.41,7S9.2,89.57,23.56,89.57H46.46s11.66-1,11.66,11.66H14.29S.06,101.43.06,87Z"/></clipPath><linearGradient id="linear-gradient-6" x1="-2.4" y1="-100.79" x2="55.82" y2="-100.79" xlink:href="#linear-gradient-2"/><clipPath id="clip-path-7"><path class="cls-1" d="M8.41,71.65a47.39,47.39,0,0,0,.29,5.93C5.94,77,3,76.4,0,75.94L0,64.63s8.41-1.42,8.41,7"/></clipPath><linearGradient id="linear-gradient-7" x1="-2.4" y1="-88.86" x2="6.31" y2="-88.86" xlink:href="#linear-gradient-3"/><clipPath id="clip-path-8"><path class="cls-1" d="M40.31,98.91c0-3.31-1.68-6.46-4.73-9.35H46.46s11.66-1,11.66,11.66H40a9.88,9.88,0,0,0,.28-2.31"/></clipPath><linearGradient id="linear-gradient-8" x1="33.18" y1="-113.36" x2="55.76" y2="-113.36" xlink:href="#linear-gradient-3"/><clipPath id="clip-path-9"><path class="cls-1" d="M71.95,36.12h0q-1.06,0-2.38-.07a19.59,19.59,0,0,1-2.49-.27l-.35-.06-.06-.35a25.8,25.8,0,0,1-.4-4.47,26.61,26.61,0,0,1,.4-4.48l.06-.35.35-.06c.75-.13,1.57-.24,2.44-.3s1.65-.1,2.36-.1,1.58,0,2.46.1a24.84,24.84,0,0,1,2.47.3l.35.06.06.35a20.25,20.25,0,0,1,.27,2.25c0,.74.07,1.49.07,2.23s0,1.43-.07,2.19a19.63,19.63,0,0,1-.27,2.29l-.06.35-.35.06a19.55,19.55,0,0,1-2.45.27c-.86,0-1.67.07-2.42.07M60.29,75.75h0a12.05,12.05,0,0,1-8.43-2.92c-2.13-1.94-3.21-5.12-3.21-9.45V26.54l.42-.07a28.79,28.79,0,0,1,4.73-.4,28.42,28.42,0,0,1,4.67.4l.42.07V61.36a18.24,18.24,0,0,0,.22,3.18,4.37,4.37,0,0,0,.63,1.73,2,2,0,0,0,1,.76,5.79,5.79,0,0,0,1.8.24c.34,0,.71,0,1.09-.06A9.93,9.93,0,0,0,64.83,67l.48-.11.13.47a20.8,20.8,0,0,1,.74,5.37v1A4.45,4.45,0,0,1,66,74.78l-.07.28-.27.09a12.79,12.79,0,0,1-2.63.48C62.06,75.71,61.13,75.75,60.29,75.75Zm12.77,0h0a28.13,28.13,0,0,1-4.6-.4L68,75.28V48.57H63.75l-.09-.39a15.57,15.57,0,0,1-.31-1.86,18.35,18.35,0,0,1-.1-1.85,16,16,0,0,1,.41-3.58l.09-.39h14.4v34.8l-.42.07A28.63,28.63,0,0,1,73.06,75.75Zm-36,.39h0a19.29,19.29,0,0,1-7.6-1.39,14.74,14.74,0,0,1-5.39-3.83,16.33,16.33,0,0,1-3.21-5.78,24.72,24.72,0,0,1,0-14.29A16.62,16.62,0,0,1,24,45a14.84,14.84,0,0,1,5.32-3.93,17.89,17.89,0,0,1,7.35-1.42c.95,0,1.85,0,2.68.07a20,20,0,0,1,2.39.27,21.51,21.51,0,0,1,2.28.54c.75.22,1.6.51,2.53.86l.33.13v.35a17,17,0,0,1-.41,3.48,15.26,15.26,0,0,1-1.29,3.69l-.2.4-.42-.14a21.59,21.59,0,0,0-3.36-.87A21.84,21.84,0,0,0,38,48.24a6.74,6.74,0,0,0-5.72,2.46c-1.3,1.67-2,4.11-2,7.25,0,3.39.7,5.87,2.09,7.38A7.23,7.23,0,0,0,38,67.59q1,0,1.78,0a12.39,12.39,0,0,0,1.54-.16A11,11,0,0,0,42.88,67q.81-.26,1.92-.65l.39-.14.21.36a14.07,14.07,0,0,1,1.36,3.16A14.82,14.82,0,0,1,47.31,74v.34l-.32.13a20.9,20.9,0,0,1-5,1.37A38.18,38.18,0,0,1,37.1,76.14Zm59.88,0a19.29,19.29,0,0,1-7.6-1.39A14.73,14.73,0,0,1,84,70.93a16.32,16.32,0,0,1-3.21-5.78,24.72,24.72,0,0,1,0-14.29A16.62,16.62,0,0,1,83.93,45a14.85,14.85,0,0,1,5.32-3.93,17.9,17.9,0,0,1,7.35-1.42c.95,0,1.85,0,2.68.07a20,20,0,0,1,2.39.27,21.33,21.33,0,0,1,2.28.54c.75.22,1.6.51,2.53.86l.33.13v.35a17,17,0,0,1-.4,3.48,15.33,15.33,0,0,1-1.29,3.69l-.2.4-.42-.14a18.28,18.28,0,0,0-6.65-1.09,6.74,6.74,0,0,0-5.72,2.46c-1.3,1.67-2,4.11-2,7.25,0,3.39.7,5.87,2.09,7.38a7.23,7.23,0,0,0,5.65,2.26q1,0,1.78,0a12.39,12.39,0,0,0,1.54-.16,11,11,0,0,0,1.53-.37q.81-.26,1.92-.65l.39-.14.21.36a14,14,0,0,1,1.36,3.16,14.82,14.82,0,0,1,.54,4.24v.34l-.32.13a20.9,20.9,0,0,1-5,1.37A38.09,38.09,0,0,1,97,76.14Z"/></clipPath><linearGradient id="linear-gradient-9" x1="62.76" y1="-85.86" x2="59.46" y2="-52.84" gradientTransform="matrix(1, 0, 0, -1, 2.4, -18.47)" gradientUnits="userSpaceOnUse"><stop offset="0" stop-color="#9fc54c"/><stop offset="0.89" stop-color="#52934b"/><stop offset="1" stop-color="#52934b"/></linearGradient><clipPath id="clip-path-10"><path class="cls-1" d="M104.85,66.86h0a13.58,13.58,0,0,1,1.31,3,14.25,14.25,0,0,1,.52,4.09,20.21,20.21,0,0,1-4.91,1.34,37.72,37.72,0,0,1-4.78.3,18.73,18.73,0,0,1-7.4-1.35,14.21,14.21,0,0,1-5.21-3.7A15.71,15.71,0,0,1,81.27,65a24.21,24.21,0,0,1,0-14,16,16,0,0,1,3.08-5.63,14.33,14.33,0,0,1,5.14-3.8A17.36,17.36,0,0,1,96.6,40.2c1,0,1.84,0,2.65.07a19.73,19.73,0,0,1,2.33.26,20.91,20.91,0,0,1,2.23.52q1.11.33,2.49.85a16.44,16.44,0,0,1-.39,3.37,14.64,14.64,0,0,1-1.25,3.57,21.9,21.9,0,0,0-3.44-.88,22.2,22.2,0,0,0-3.37-.23,7.28,7.28,0,0,0-6.12,2.65Q89.65,53,89.65,58q0,5.31,2.23,7.73a7.78,7.78,0,0,0,6,2.42c.66,0,1.25,0,1.8,0a12.94,12.94,0,0,0,1.6-.16,11.13,11.13,0,0,0,1.6-.39l1.93-.65M67.17,35.29h0a25.16,25.16,0,0,1-.39-4.39,26,26,0,0,1,.39-4.39,23.53,23.53,0,0,1,2.39-.29c.85-.07,1.63-.1,2.32-.1s1.55,0,2.42.1a23.46,23.46,0,0,1,2.42.29A19.39,19.39,0,0,1,77,28.71q.07,1.08.07,2.2T77,33.06a18.93,18.93,0,0,1-.26,2.23,19.6,19.6,0,0,1-2.39.26q-1.28.07-2.39.06t-2.36-.06A19.85,19.85,0,0,1,67.17,35.29Zm1.38,12.77H64.15a14.85,14.85,0,0,1-.29-1.8,18,18,0,0,1-.1-1.8A15.39,15.39,0,0,1,64.15,41H77.65V74.85a28,28,0,0,1-4.58.39,27.65,27.65,0,0,1-4.52-.39V48.06ZM49.15,27h0a28.05,28.05,0,0,1,4.65-.39,27.7,27.7,0,0,1,4.58.39V61.36a18.61,18.61,0,0,0,.23,3.27,4.84,4.84,0,0,0,.72,1.93,2.52,2.52,0,0,0,1.28.95,6.25,6.25,0,0,0,2,.26,10.7,10.7,0,0,0,1.15-.07,10,10,0,0,0,1.21-.2,20.24,20.24,0,0,1,.72,5.24v1a4,4,0,0,1-.13,1,12.18,12.18,0,0,1-2.52.46q-1.47.13-2.72.13a11.51,11.51,0,0,1-8.09-2.79q-3-2.78-3-9.07V27ZM45,66.86a13.63,13.63,0,0,1,1.31,3A14.23,14.23,0,0,1,46.8,74a20.2,20.2,0,0,1-4.91,1.34,37.7,37.7,0,0,1-4.78.3,18.73,18.73,0,0,1-7.4-1.35,14.19,14.19,0,0,1-5.21-3.7A15.74,15.74,0,0,1,21.38,65a24.21,24.21,0,0,1,0-14,16,16,0,0,1,3.08-5.63,14.35,14.35,0,0,1,5.14-3.8,17.37,17.37,0,0,1,7.14-1.37c1,0,1.84,0,2.65.07a19.74,19.74,0,0,1,2.33.26,21,21,0,0,1,2.23.52q1.11.33,2.49.85A16.54,16.54,0,0,1,46,45.28a14.77,14.77,0,0,1-1.25,3.57A22,22,0,0,0,41.33,48,22.23,22.23,0,0,0,38,47.74a7.27,7.27,0,0,0-6.12,2.65Q29.77,53,29.77,58q0,5.31,2.23,7.73a7.78,7.78,0,0,0,6,2.42c.65,0,1.25,0,1.8,0a12.91,12.91,0,0,0,1.6-.16,11.09,11.09,0,0,0,1.6-.39Z"/></clipPath><linearGradient id="linear-gradient-10" x1="62.74" y1="-85.53" x2="59.48" y2="-53.17" gradientTransform="matrix(1, 0, 0, -1, 2.4, -18.47)" gradientUnits="userSpaceOnUse"><stop offset="0" stop-color="#52934b"/><stop offset="0.1" stop-color="#52934b"/><stop offset="1" stop-color="#9fc54c"/></linearGradient><clipPath id="clip-path-11"><path class="cls-1" d="M131.91,68h0a10.83,10.83,0,0,0-.36-2.36,6.74,6.74,0,0,0-1.11-2.34,5.72,5.72,0,0,0-1.94-1.61A7.14,7.14,0,0,0,120.77,63a9.1,9.1,0,0,0-2.06,5Zm-5.21,15.63h0a14.57,14.57,0,0,1-5.54-1,10.11,10.11,0,0,1-3.85-2.7,11,11,0,0,1-2.22-4.11,18.07,18.07,0,0,1-.7-5.17,19.2,19.2,0,0,1,.65-5.09,12.69,12.69,0,0,1,2-4.21,9.47,9.47,0,0,1,3.5-2.88,11.49,11.49,0,0,1,5.07-1,10.93,10.93,0,0,1,4.38.84,9.08,9.08,0,0,1,3.26,2.36,10.13,10.13,0,0,1,2,3.61,14.87,14.87,0,0,1,.66,4.51q0,.43,0,1.1c0,.46,0,.84-.07,1.16l0,.38h-17.2c.06,2.88.77,5,2.1,6.39S124.2,80,127,80a16.78,16.78,0,0,0,3.26-.3,21.62,21.62,0,0,0,2.95-.81l.37-.13.16.36a6.15,6.15,0,0,1,.41,1.38,13.37,13.37,0,0,1,.2,1.42l0,.3-.27.12a14.34,14.34,0,0,1-3.32,1A23.36,23.36,0,0,1,126.71,83.67Zm17.2,0h0a26.36,26.36,0,0,1-4.12-.29,12.62,12.62,0,0,1-3-.79l-.31-.14.07-.33a14.71,14.71,0,0,1,.93-2.93l.17-.38L138,79a13.67,13.67,0,0,0,2.62.71,17,17,0,0,0,3.1.3A6.93,6.93,0,0,0,148,78.81,3.34,3.34,0,0,0,149.5,76a3.65,3.65,0,0,0-.44-1.89,4,4,0,0,0-1.2-1.27,7.26,7.26,0,0,0-1.77-.87L144,71.28c-.79-.25-1.59-.54-2.37-.86a8.41,8.41,0,0,1-2.17-1.27,5.67,5.67,0,0,1-2.15-4.71,6.31,6.31,0,0,1,2.26-5c1.48-1.26,3.76-1.9,6.79-1.9a19.51,19.51,0,0,1,3.66.34,16.19,16.19,0,0,1,2.72.72c0-.05.09-.49.09-.49h4v-4.3L160,50.65h.79v7.44h6.46l.07.34a5.11,5.11,0,0,1,.08.62c0,.23,0,.48,0,.74s0,.52,0,.79a5.23,5.23,0,0,1-.08.67l-.07.34h-6.46V76.9a4.27,4.27,0,0,0,.27,1.7,2.29,2.29,0,0,0,.67.9,2.21,2.21,0,0,0,1,.42,6.76,6.76,0,0,0,1.23.11,8.47,8.47,0,0,0,2.75-.4l.43-.15.12.44a17.09,17.09,0,0,1,.49,2.72l0,.35-.33.1a14.13,14.13,0,0,1-4.11.54,6.92,6.92,0,0,1-4.66-1.55c-1.21-1-1.83-2.74-1.83-5V61.59h-4l-.07-.34a5.17,5.17,0,0,1-.08-.61c-.1.4-.21.79-.34,1.18l-.13.41-.41-.14a24.76,24.76,0,0,0-2.49-.65,15,15,0,0,0-3.11-.32,6.07,6.07,0,0,0-3.83.92,2.9,2.9,0,0,0-1.06,2.35,2.44,2.44,0,0,0,.34,1.31,3.21,3.21,0,0,0,1,1,7.51,7.51,0,0,0,1.48.74c.58.22,1.19.42,1.84.61.86.28,1.73.6,2.62.94A10.09,10.09,0,0,1,151,70.31a7,7,0,0,1,1.87,2.17,6.71,6.71,0,0,1,.74,3.29,7.37,7.37,0,0,1-.73,3.29,7.22,7.22,0,0,1-2,2.52,9.32,9.32,0,0,1-3.08,1.56A13.28,13.28,0,0,1,143.9,83.67Zm35.11,0h0a20.17,20.17,0,0,1-4.28-.44,8.23,8.23,0,0,1-3.59-1.72A8.65,8.65,0,0,1,168.72,78a15.58,15.58,0,0,1-.88-5.7V58.16l.35-.06A7.25,7.25,0,0,1,169,58l.78,0,.8,0a7.29,7.29,0,0,1,.83.08l.35.06v14a13.73,13.73,0,0,0,.5,4.07,5.31,5.31,0,0,0,1.42,2.37,5.21,5.21,0,0,0,2.3,1.18,13.87,13.87,0,0,0,3.22.34,20.74,20.74,0,0,0,2.74-.16,15,15,0,0,0,1.81-.35V58.16l.36-.06A7.23,7.23,0,0,1,185,58l.78,0,.8,0a7.22,7.22,0,0,1,.83.08l.35.06V82.39l-.31.08c-1.18.32-2.51.6-4,.84A27.77,27.77,0,0,1,179,83.67Zm23.69-22.51h0a8.72,8.72,0,0,0-3.68.72,7.06,7.06,0,0,0-2.57,2,8.7,8.7,0,0,0-1.56,3.1,14.67,14.67,0,0,0-.53,4.05c0,3.15.74,5.46,2.22,6.87A8.86,8.86,0,0,0,202.94,80a25.32,25.32,0,0,0,2.94-.16,15.76,15.76,0,0,0,1.85-.31V62a16,16,0,0,0-2.08-.57A14.47,14.47,0,0,0,202.71,61.17Zm.38,22.51h0a19.23,19.23,0,0,1-5-.63,10.39,10.39,0,0,1-4.1-2.13,10.26,10.26,0,0,1-2.75-3.9,15.37,15.37,0,0,1-1-5.9,17.33,17.33,0,0,1,.88-5.71,12.08,12.08,0,0,1,2.51-4.27,11,11,0,0,1,3.92-2.69,13.21,13.21,0,0,1,5-.93,19.26,19.26,0,0,1,3.17.27,18.81,18.81,0,0,1,2,.43V47.5l.36-.06a7.69,7.69,0,0,1,.85-.08l.78,0,.8,0a7.52,7.52,0,0,1,.83.08l.36.06V82.42l-.29.1a24.7,24.7,0,0,1-3.71.82A30.91,30.91,0,0,1,203.09,83.67ZM231.6,68h0a10.7,10.7,0,0,0-.36-2.36,6.72,6.72,0,0,0-1.11-2.34,5.72,5.72,0,0,0-1.94-1.61A7.13,7.13,0,0,0,220.45,63a9.1,9.1,0,0,0-2.06,5Zm-5.21,15.63a14.55,14.55,0,0,1-5.54-1A10.11,10.11,0,0,1,217,80a10.94,10.94,0,0,1-2.22-4.11,18,18,0,0,1-.71-5.17,19.18,19.18,0,0,1,.65-5.09,12.71,12.71,0,0,1,2-4.21,9.47,9.47,0,0,1,3.49-2.88,11.49,11.49,0,0,1,5.07-1,11,11,0,0,1,4.39.84,9.06,9.06,0,0,1,3.25,2.36,10.15,10.15,0,0,1,2,3.61,14.89,14.89,0,0,1,.66,4.51q0,.43,0,1.1c0,.46,0,.84-.07,1.16l0,.38h-17.2c.06,2.88.77,5,2.1,6.39S223.89,80,226.73,80a16.81,16.81,0,0,0,3.26-.3,21.62,21.62,0,0,0,3-.81l.37-.13.16.36a5.92,5.92,0,0,1,.41,1.37,13.59,13.59,0,0,1,.2,1.42l0,.3-.27.12a14.31,14.31,0,0,1-3.32,1A23.54,23.54,0,0,1,226.39,83.67Z"/></clipPath><linearGradient id="linear-gradient-11" x1="111.99" y1="-83.98" x2="233.19" y2="-83.98" xlink:href="#linear-gradient-9"/><clipPath id="clip-path-12"><path class="cls-1" d="M232,68.46h0a11.21,11.21,0,0,0-.38-2.89,7.13,7.13,0,0,0-1.18-2.49,6.07,6.07,0,0,0-2.08-1.73,7.54,7.54,0,0,0-8.25,1.38,9.79,9.79,0,0,0-2.23,5.73H232Zm-14.21,2.61h0q0,4.83,2.23,7.11t6.68,2.27a17.14,17.14,0,0,0,3.34-.31,22.07,22.07,0,0,0,3-.83,5.57,5.57,0,0,1,.38,1.28,13,13,0,0,1,.19,1.37,13.87,13.87,0,0,1-3.22.95,22.8,22.8,0,0,1-4,.33,14.14,14.14,0,0,1-5.38-.92,9.67,9.67,0,0,1-3.7-2.58,10.5,10.5,0,0,1-2.13-4,17.53,17.53,0,0,1-.69-5,18.65,18.65,0,0,1,.64-5,12.18,12.18,0,0,1,1.94-4.08,9,9,0,0,1,3.34-2.75,11,11,0,0,1,4.88-1,10.46,10.46,0,0,1,4.22.8,8.61,8.61,0,0,1,3.1,2.25,9.63,9.63,0,0,1,1.9,3.46,14.42,14.42,0,0,1,.64,4.38c0,.29,0,.65,0,1.09s0,.82-.07,1.14H217.82Zm-9.67-9.33h0a15.77,15.77,0,0,0-5.45-1,9.13,9.13,0,0,0-3.86.76,7.51,7.51,0,0,0-2.73,2.11,9.08,9.08,0,0,0-1.63,3.25,15,15,0,0,0-.54,4.17q0,4.93,2.34,7.18a9.23,9.23,0,0,0,6.66,2.25,25.18,25.18,0,0,0,3-.17,14.11,14.11,0,0,0,2.23-.4V61.74Zm0-13.88h0a7.8,7.8,0,0,1,.81-.07l.76,0,.78,0a7.65,7.65,0,0,1,.78.07V82.11a24,24,0,0,1-3.65.81,30.14,30.14,0,0,1-4.55.33,18.64,18.64,0,0,1-4.88-.61,9.93,9.93,0,0,1-3.93-2,9.77,9.77,0,0,1-2.63-3.74,14.91,14.91,0,0,1-1-5.73,16.8,16.8,0,0,1,.85-5.56,11.56,11.56,0,0,1,2.42-4.12,10.47,10.47,0,0,1,3.76-2.58,12.72,12.72,0,0,1,4.86-.9,18.75,18.75,0,0,1,3.1.26,15.82,15.82,0,0,1,2.49.59V47.85ZM168.26,58.52h0a6.83,6.83,0,0,1,.81-.07l.76,0,.78,0a6.92,6.92,0,0,1,.78.07v13.6a14.09,14.09,0,0,0,.52,4.19,5.69,5.69,0,0,0,1.54,2.56,5.58,5.58,0,0,0,2.49,1.28,14.22,14.22,0,0,0,3.32.35,20.53,20.53,0,0,0,2.8-.17,14.08,14.08,0,0,0,2.18-.45V58.52a6.75,6.75,0,0,1,.8-.07l.76,0,.78,0a6.88,6.88,0,0,1,.78.07V82.06q-1.75.47-3.91.83a27.39,27.39,0,0,1-4.43.35,19.62,19.62,0,0,1-4.19-.43,7.8,7.8,0,0,1-3.41-1.63,8.23,8.23,0,0,1-2.3-3.34,15.15,15.15,0,0,1-.85-5.54V58.52Zm-11,2.65h-4.12a5.11,5.11,0,0,1-.07-.62c0-.25,0-.51,0-.76s0-.49,0-.71a5.08,5.08,0,0,1,.07-.57h4.12V54l2.94-2.89h.19v7.44h6.54a5.32,5.32,0,0,1,.07.57c0,.22,0,.46,0,.71s0,.51,0,.76a5.31,5.31,0,0,1-.07.62h-6.54V76.9a4.62,4.62,0,0,0,.31,1.87,2.54,2.54,0,0,0,1.94,1.56,6.87,6.87,0,0,0,1.3.12,8.85,8.85,0,0,0,2.89-.42,16.58,16.58,0,0,1,.47,2.65,13.69,13.69,0,0,1-4,.52A6.48,6.48,0,0,1,159,81.76q-1.68-1.45-1.68-4.71V61.17ZM137.89,79.36h0a13.75,13.75,0,0,0,2.7.74,17.24,17.24,0,0,0,3.18.31,7.28,7.28,0,0,0,4.5-1.26,3.77,3.77,0,0,0,1.66-3.1,4.05,4.05,0,0,0-.5-2.11,4.5,4.5,0,0,0-1.33-1.4,7.72,7.72,0,0,0-1.87-.92l-2.13-.74c-.79-.25-1.57-.54-2.35-.85a8,8,0,0,1-2.06-1.21,5.26,5.26,0,0,1-2-4.38,5.87,5.87,0,0,1,2.11-4.69q2.1-1.8,6.51-1.8a19.16,19.16,0,0,1,3.58.33,15.21,15.21,0,0,1,2.68.71,19.65,19.65,0,0,1-.66,2.7,24.93,24.93,0,0,0-2.54-.66,15.17,15.17,0,0,0-3.2-.33,6.41,6.41,0,0,0-4.1,1,3.33,3.33,0,0,0-1.21,2.68,2.84,2.84,0,0,0,.4,1.54A3.59,3.59,0,0,0,142.37,67a8.12,8.12,0,0,0,1.56.78q.87.33,1.87.62c.85.28,1.71.59,2.58.92a9.59,9.59,0,0,1,2.37,1.3,6.43,6.43,0,0,1,1.75,2,6.24,6.24,0,0,1,.69,3.08,6.92,6.92,0,0,1-.69,3.1,6.8,6.8,0,0,1-1.92,2.37,8.89,8.89,0,0,1-2.94,1.49,12.78,12.78,0,0,1-3.74.52,25.85,25.85,0,0,1-4-.28,12.22,12.22,0,0,1-2.87-.76A14.07,14.07,0,0,1,137.89,79.36Zm-5.54-10.9h0a11.16,11.16,0,0,0-.38-2.89,7.11,7.11,0,0,0-1.18-2.49,6.07,6.07,0,0,0-2.09-1.73,7.54,7.54,0,0,0-8.25,1.38,9.8,9.8,0,0,0-2.23,5.73h14.12Zm-14.22,2.61q0,4.83,2.23,7.11T127,80.45a17.14,17.14,0,0,0,3.34-.31,22.13,22.13,0,0,0,3-.83,5.61,5.61,0,0,1,.38,1.28A12.91,12.91,0,0,1,134,82a13.89,13.89,0,0,1-3.22.95,22.8,22.8,0,0,1-4,.33,14.14,14.14,0,0,1-5.38-.92,9.65,9.65,0,0,1-3.7-2.58,10.5,10.5,0,0,1-2.13-4,17.57,17.57,0,0,1-.69-5,18.59,18.59,0,0,1,.64-5,12.13,12.13,0,0,1,1.94-4.08,9,9,0,0,1,3.34-2.75,11,11,0,0,1,4.88-1,10.44,10.44,0,0,1,4.21.8A8.61,8.61,0,0,1,132.94,61a9.68,9.68,0,0,1,1.9,3.46,14.42,14.42,0,0,1,.64,4.38c0,.29,0,.65,0,1.09s0,.82-.07,1.14H118.13Z"/></clipPath><linearGradient id="linear-gradient-12" x1="112.41" y1="-83.98" x2="232.76" y2="-83.98" xlink:href="#linear-gradient-10"/></defs><title>Prancheta 1</title><path class="cls-2" d="M120.69,91.88h0a3.73,3.73,0,0,0-.12-1,2.38,2.38,0,0,0-.39-.82,2,2,0,0,0-.69-.57,2.5,2.5,0,0,0-2.73.46,3.25,3.25,0,0,0-.74,1.9h4.68Zm-4.71.87a3.26,3.26,0,0,0,.74,2.36,3,3,0,0,0,2.22.75,5.64,5.64,0,0,0,1.11-.1,7,7,0,0,0,1-.27,1.86,1.86,0,0,1,.13.42,4.41,4.41,0,0,1,.06.46,4.63,4.63,0,0,1-1.07.31,7.57,7.57,0,0,1-1.33.11,4.69,4.69,0,0,1-1.78-.31,3.21,3.21,0,0,1-1.22-.86,3.49,3.49,0,0,1-.71-1.31,5.82,5.82,0,0,1-.23-1.67,6.19,6.19,0,0,1,.21-1.65,4,4,0,0,1,.64-1.35,3,3,0,0,1,1.11-.91,3.65,3.65,0,0,1,1.62-.33,3.49,3.49,0,0,1,1.4.27,2.85,2.85,0,0,1,1,.75,3.19,3.19,0,0,1,.63,1.15,4.79,4.79,0,0,1,.21,1.45q0,.14,0,.36c0,.15,0,.27,0,.38Z"/><path class="cls-2" d="M123.06,88.58l.24,0h.46l.24,0c0,.19,0,.42,0,.71s0,.53,0,.74a3.42,3.42,0,0,1,.41-.57,3.18,3.18,0,0,1,.59-.53,3.1,3.1,0,0,1,.78-.39,3,3,0,0,1,1-.15,2.36,2.36,0,0,1,2,.83,3.75,3.75,0,0,1,.63,2.32v5.06l-.26,0h-.51l-.27,0V91.85a3.38,3.38,0,0,0-.42-1.92,1.43,1.43,0,0,0-1.25-.58,2.48,2.48,0,0,0-1,.22,2.37,2.37,0,0,0-.84.64,3.08,3.08,0,0,0-.56,1,4.4,4.4,0,0,0-.21,1.4v4l-.26,0h-.51l-.27,0v-8Z"/><path class="cls-2" d="M130.88,95.49a4.67,4.67,0,0,0,.9.24,5.82,5.82,0,0,0,1.05.1,2.41,2.41,0,0,0,1.49-.42,1.24,1.24,0,0,0,.55-1,1.33,1.33,0,0,0-.17-.7,1.47,1.47,0,0,0-.44-.46,2.6,2.6,0,0,0-.62-.31l-.71-.24c-.26-.08-.52-.18-.78-.28a2.66,2.66,0,0,1-.68-.4,1.73,1.73,0,0,1-.66-1.45,2,2,0,0,1,.7-1.55,3.27,3.27,0,0,1,2.16-.6,6.28,6.28,0,0,1,1.19.11,5.08,5.08,0,0,1,.89.24,6.75,6.75,0,0,1-.22.9,8.18,8.18,0,0,0-.84-.22,5,5,0,0,0-1.06-.11,2.12,2.12,0,0,0-1.36.34,1.11,1.11,0,0,0-.4.89A.93.93,0,0,0,132,91a1.17,1.17,0,0,0,.36.36,2.65,2.65,0,0,0,.52.26l.62.2.86.31a3.13,3.13,0,0,1,.79.43,2.16,2.16,0,0,1,.58.67,2.09,2.09,0,0,1,.23,1,2.3,2.3,0,0,1-.23,1,2.25,2.25,0,0,1-.64.79,3,3,0,0,1-1,.5,4.24,4.24,0,0,1-1.24.17,8.59,8.59,0,0,1-1.34-.09,4.09,4.09,0,0,1-1-.25,4.63,4.63,0,0,1,.3-.94"/><path class="cls-2" d="M137.23,86.62h0c0-.09,0-.21,0-.35s0-.25,0-.34,0-.19,0-.31,0-.23,0-.31l.35,0h.66l.31,0c0,.08,0,.19,0,.31s0,.23,0,.31,0,.21,0,.34,0,.25,0,.35l-.31,0h-.66l-.35,0m.52,2.84h-1a1.57,1.57,0,0,1,0-.19c0-.07,0-.15,0-.24s0-.17,0-.25a2,2,0,0,1,0-.21h2v8l-.26,0H138l-.27,0V89.46Z"/><path class="cls-2" d="M140.6,88.58l.24,0h.46l.24,0c0,.19,0,.42,0,.71s0,.53,0,.74a3.37,3.37,0,0,1,.41-.57,3.09,3.09,0,0,1,1.37-.91,3,3,0,0,1,1-.15,2.36,2.36,0,0,1,2,.83,3.75,3.75,0,0,1,.63,2.32v5.06l-.26,0h-.51l-.27,0V91.85a3.37,3.37,0,0,0-.42-1.92,1.43,1.43,0,0,0-1.25-.58,2.48,2.48,0,0,0-1,.22,2.38,2.38,0,0,0-.84.64,3.09,3.09,0,0,0-.56,1,4.4,4.4,0,0,0-.2,1.4v4l-.26,0h-.51l-.27,0v-8Z"/><path class="cls-2" d="M151.77,95.87h0a2.14,2.14,0,0,0,1.88-.88,5,5,0,0,0,0-4.81,2.44,2.44,0,0,0-3.75,0,5,5,0,0,0,0,4.81,2.14,2.14,0,0,0,1.88.88m0,.91a3.61,3.61,0,0,1-1.57-.32,3.15,3.15,0,0,1-1.12-.89,3.81,3.81,0,0,1-.67-1.33,6.27,6.27,0,0,1,0-3.3,3.81,3.81,0,0,1,.67-1.34,3.16,3.16,0,0,1,1.12-.89,3.63,3.63,0,0,1,1.57-.32,3.56,3.56,0,0,1,1.56.32,3.17,3.17,0,0,1,1.12.89,3.92,3.92,0,0,1,.68,1.34,6.09,6.09,0,0,1,0,3.3,3.9,3.9,0,0,1-.68,1.33,3.15,3.15,0,0,1-1.12.89A3.55,3.55,0,0,1,151.77,96.78Z"/><path class="cls-2" d="M160.74,95.57h0a4,4,0,0,0,.75.21,5.85,5.85,0,0,0,1,.07,3.44,3.44,0,0,0,1.16-.2,2.48,2.48,0,0,0,1-.62,3,3,0,0,0,.64-1.08,4.6,4.6,0,0,0,.24-1.56,4.06,4.06,0,0,0-.54-2.26,2,2,0,0,0-1.75-.82,3,3,0,0,0-.82.13,2.19,2.19,0,0,0-.81.43,2.39,2.39,0,0,0-.61.8,2.81,2.81,0,0,0-.24,1.25v3.64Zm-1-7,.23,0h.47l.24,0,.09,1.1a3.07,3.07,0,0,1,.95-.9,3,3,0,0,1,1.61-.39,3.86,3.86,0,0,1,1.35.23,2.59,2.59,0,0,1,1,.71,3.44,3.44,0,0,1,.67,1.23,6.41,6.41,0,0,1,0,3.64,3.8,3.8,0,0,1-.82,1.4,3.58,3.58,0,0,1-1.34.88,5,5,0,0,1-1.81.31,5.79,5.79,0,0,1-.82-.06,4.3,4.3,0,0,1-.8-.19v3.77l-.27,0H160l-.26,0V88.58Z"/><path class="cls-2" d="M168,88.58l.24,0h.46l.24,0c0,.19,0,.41,0,.67s0,.49,0,.7a2.86,2.86,0,0,1,.88-1,2.52,2.52,0,0,1,1.49-.4h.16l.2,0a2.92,2.92,0,0,1,0,.5,2.49,2.49,0,0,1,0,.49l-.2,0h-.15a2.26,2.26,0,0,0-1.71.68,3.2,3.2,0,0,0-.64,2.25v4.12l-.26,0h-.51l-.27,0v-8Z"/><path class="cls-2" d="M177.71,91.88h0a3.78,3.78,0,0,0-.12-1,2.36,2.36,0,0,0-.39-.82,2,2,0,0,0-.69-.57,2.5,2.5,0,0,0-2.73.46,3.25,3.25,0,0,0-.74,1.9h4.68Zm-4.71.87a3.26,3.26,0,0,0,.74,2.36,3,3,0,0,0,2.21.75,5.63,5.63,0,0,0,1.11-.1,7,7,0,0,0,1-.27,1.9,1.9,0,0,1,.13.42,4.36,4.36,0,0,1,.06.46,4.62,4.62,0,0,1-1.07.31,7.57,7.57,0,0,1-1.33.11,4.69,4.69,0,0,1-1.78-.31,3.19,3.19,0,0,1-1.22-.86,3.47,3.47,0,0,1-.71-1.31,5.78,5.78,0,0,1-.23-1.67,6.21,6.21,0,0,1,.21-1.65,4,4,0,0,1,.64-1.35,3,3,0,0,1,1.11-.91,3.65,3.65,0,0,1,1.62-.33,3.48,3.48,0,0,1,1.4.27,2.83,2.83,0,0,1,1,.75,3.21,3.21,0,0,1,.63,1.15,4.79,4.79,0,0,1,.21,1.45c0,.09,0,.21,0,.36s0,.27,0,.38Z"/><path class="cls-2" d="M181.12,95.57h0a4.07,4.07,0,0,0,.75.21,5.86,5.86,0,0,0,1,.07,3.44,3.44,0,0,0,1.16-.2,2.46,2.46,0,0,0,1-.62,3,3,0,0,0,.64-1.08,4.62,4.62,0,0,0,.24-1.56,4.06,4.06,0,0,0-.54-2.26,2,2,0,0,0-1.75-.82,3,3,0,0,0-.82.13,2.2,2.2,0,0,0-.81.43,2.39,2.39,0,0,0-.61.8,2.79,2.79,0,0,0-.24,1.25v3.64Zm-1-7,.24,0h.47l.24,0,.09,1.1a3.07,3.07,0,0,1,.95-.9,3,3,0,0,1,1.61-.39,3.87,3.87,0,0,1,1.35.23,2.6,2.6,0,0,1,1,.71,3.44,3.44,0,0,1,.68,1.23,6.43,6.43,0,0,1,0,3.64,3.76,3.76,0,0,1-.82,1.4,3.58,3.58,0,0,1-1.34.88,5,5,0,0,1-1.81.31,5.8,5.8,0,0,1-.82-.06,4.28,4.28,0,0,1-.8-.19v3.77l-.27,0h-.51l-.26,0V88.58Z"/><path class="cls-2" d="M192.81,92.7h0l-.67-.07c-.27,0-.52,0-.76,0a3.22,3.22,0,0,0-1.82.44,1.43,1.43,0,0,0-.64,1.26,1.56,1.56,0,0,0,.2.83,1.31,1.31,0,0,0,.51.48,2.13,2.13,0,0,0,.69.22,5.14,5.14,0,0,0,.75.05,8.61,8.61,0,0,0,.91,0q.42,0,.83-.13v-3Zm0-1.4a2.06,2.06,0,0,0-.49-1.52,2,2,0,0,0-1.45-.48,7,7,0,0,0-1.15.09,7.38,7.38,0,0,0-.93.21,1.57,1.57,0,0,1-.13-.41,2.46,2.46,0,0,1-.05-.5,6.81,6.81,0,0,1,1-.21,8.42,8.42,0,0,1,1.22-.09,3.29,3.29,0,0,1,2.26.67,2.69,2.69,0,0,1,.74,2.1v5.29c-.37.07-.81.15-1.34.22a10.77,10.77,0,0,1-1.49.11,4,4,0,0,1-2.3-.58,2.13,2.13,0,0,1-.84-1.89,2.51,2.51,0,0,1,.24-1.12,2.36,2.36,0,0,1,.68-.83,2.94,2.94,0,0,1,1-.51,4.77,4.77,0,0,1,1.33-.17c.38,0,.7,0,1,0l.68.07V91.3Z"/><path class="cls-2" d="M195.51,88.58l.24,0h.46l.24,0c0,.19,0,.41,0,.67s0,.49,0,.7a2.84,2.84,0,0,1,.88-1,2.52,2.52,0,0,1,1.49-.4H199l.2,0a2.93,2.93,0,0,1,0,.5,2.5,2.5,0,0,1,0,.49l-.2,0h-.15a2.26,2.26,0,0,0-1.71.68,3.2,3.2,0,0,0-.64,2.25v4.12l-.26,0h-.51l-.27,0v-8Z"/><path class="cls-2" d="M204.32,92.7h0l-.67-.07c-.27,0-.52,0-.76,0a3.22,3.22,0,0,0-1.82.44,1.43,1.43,0,0,0-.64,1.26,1.55,1.55,0,0,0,.2.83,1.31,1.31,0,0,0,.51.48,2.13,2.13,0,0,0,.69.22,5.15,5.15,0,0,0,.75.05,8.57,8.57,0,0,0,.91,0c.28,0,.56-.07.83-.13v-3Zm0-1.4a2,2,0,0,0-.49-1.52,2,2,0,0,0-1.45-.48,7,7,0,0,0-1.15.09,7.36,7.36,0,0,0-.93.21,1.53,1.53,0,0,1-.13-.41,2.46,2.46,0,0,1-.05-.5,6.85,6.85,0,0,1,1-.21,8.42,8.42,0,0,1,1.23-.09,3.29,3.29,0,0,1,2.26.67,2.69,2.69,0,0,1,.74,2.1v5.29c-.37.07-.81.15-1.34.22a10.76,10.76,0,0,1-1.49.11,4,4,0,0,1-2.3-.58,2.13,2.13,0,0,1-.84-1.89,2.51,2.51,0,0,1,.24-1.12,2.36,2.36,0,0,1,.68-.83,3,3,0,0,1,1-.51,4.79,4.79,0,0,1,1.33-.17c.38,0,.7,0,1,0l.67.07Z"/><path class="cls-2" d="M207.38,89.46H206a1.62,1.62,0,0,1,0-.2c0-.08,0-.17,0-.25s0-.16,0-.23a1.64,1.64,0,0,1,0-.19h1.37V87.07l1-1h.06v2.47h2.17a1.44,1.44,0,0,1,0,.19c0,.07,0,.15,0,.23s0,.17,0,.25a1.63,1.63,0,0,1,0,.2h-2.17v5.22a1.55,1.55,0,0,0,.1.62.89.89,0,0,0,.27.35.87.87,0,0,0,.38.16,2.38,2.38,0,0,0,.43,0,2.92,2.92,0,0,0,1-.14,5.48,5.48,0,0,1,.16.88,4.56,4.56,0,0,1-1.32.17,2.14,2.14,0,0,1-1.45-.48,2,2,0,0,1-.56-1.56V89.46Z"/><path class="cls-2" d="M214.36,87.28h0a4,4,0,0,1-.64,0,3.2,3.2,0,0,1-.52,0l1.84-2a1.92,1.92,0,0,1,.35,0h.73l.36,0Zm.17,8.59h0a2.15,2.15,0,0,0,1.88-.88,5,5,0,0,0,0-4.81,2.44,2.44,0,0,0-3.75,0,5,5,0,0,0,0,4.81A2.14,2.14,0,0,0,214.53,95.87Zm0,.91a3.6,3.6,0,0,1-1.57-.32,3.13,3.13,0,0,1-1.12-.89,3.81,3.81,0,0,1-.67-1.33,6.3,6.3,0,0,1,0-3.3,3.82,3.82,0,0,1,.67-1.34,3.15,3.15,0,0,1,1.12-.89,3.63,3.63,0,0,1,1.57-.32,3.55,3.55,0,0,1,1.56.32,3.15,3.15,0,0,1,1.12.89,4,4,0,0,1,.68,1.34,5.84,5.84,0,0,1,.23,1.65,5.77,5.77,0,0,1-.23,1.65,3.92,3.92,0,0,1-.68,1.33,3.14,3.14,0,0,1-1.12.89A3.55,3.55,0,0,1,214.53,96.78Z"/><path class="cls-2" d="M219.48,88.58l.24,0h.46l.24,0c0,.19,0,.41,0,.67s0,.49,0,.7a2.87,2.87,0,0,1,.88-1,2.52,2.52,0,0,1,1.49-.4H223l.2,0a2.92,2.92,0,0,1,0,.5,2.49,2.49,0,0,1,0,.49l-.2,0h-.15a2.25,2.25,0,0,0-1.71.68,3.2,3.2,0,0,0-.64,2.25v4.12l-.26,0h-.51l-.27,0v-8Z"/><path class="cls-2" d="M224,86.62h0c0-.09,0-.21,0-.35s0-.25,0-.34,0-.19,0-.31,0-.23,0-.31l.35,0H225l.31,0c0,.08,0,.19,0,.31s0,.23,0,.31,0,.21,0,.34,0,.25,0,.35l-.31,0h-.66l-.35,0m.52,2.84h-1a1.24,1.24,0,0,1,0-.19c0-.07,0-.15,0-.24s0-.17,0-.25a1.38,1.38,0,0,1,0-.21h2v8l-.26,0h-.51l-.27,0V89.46Z"/><path class="cls-2" d="M230.51,95.87h0a2.14,2.14,0,0,0,1.88-.88,5,5,0,0,0,0-4.81,2.44,2.44,0,0,0-3.75,0,5,5,0,0,0,0,4.81,2.14,2.14,0,0,0,1.88.88m0,.91a3.6,3.6,0,0,1-1.57-.32,3.13,3.13,0,0,1-1.12-.89,3.85,3.85,0,0,1-.67-1.33,6.3,6.3,0,0,1,0-3.3,3.84,3.84,0,0,1,.67-1.34,3.15,3.15,0,0,1,1.12-.89,3.62,3.62,0,0,1,1.57-.32,3.56,3.56,0,0,1,1.56.32,3.18,3.18,0,0,1,1.12.89,3.91,3.91,0,0,1,.67,1.34,6.09,6.09,0,0,1,0,3.3,3.92,3.92,0,0,1-.67,1.33,3.16,3.16,0,0,1-1.12.89A3.56,3.56,0,0,1,230.51,96.78Z"/><g class="cls-3"><rect class="cls-4" x="67.09" y="2.33" width="57.66" height="35.76"/></g><g class="cls-5"><rect class="cls-6" x="66.65" width="58.11" height="38.23"/></g><path class="cls-7" d="M114,26.55a10.38,10.38,0,0,0-1-3.45c3.18.82,6.56,1.53,10.1,2.12l1.69,11.58S115,38.09,114,26.55"/><path class="cls-7" d="M92.67,14.65H88.25S67.09,14.8,67.09,2.52H84.46c0,4.41,3,8.55,8.2,12.13"/><g class="cls-8"><rect class="cls-9" x="116.07" y="23.85" width="8.69" height="14.38"/></g><g class="cls-10"><rect class="cls-11" x="66.65" y="0.21" width="22.54" height="12.68"/></g><g class="cls-12"><rect class="cls-13" y="63.34" width="57.67" height="35.76"/></g><g class="cls-14"><rect class="cls-15" y="63.2" width="58.12" height="38.23"/></g><path class="cls-7" d="M10.79,74.88a10.37,10.37,0,0,0,1,3.45c-3.18-.82-6.56-1.53-10.11-2.12L0,64.63s9.72-1.29,10.79,10.25"/><path class="cls-7" d="M32.1,86.78h4.42s21.15-.15,21.15,12.13H40.31c0-4.41-3-8.55-8.2-12.13"/><g class="cls-16"><rect class="cls-17" y="63.2" width="8.7" height="14.38"/></g><g class="cls-18"><rect class="cls-19" x="35.58" y="88.54" width="22.54" height="12.68"/></g><g class="cls-20"><rect class="cls-21" x="19.83" y="25.61" width="87.36" height="50.53"/></g><g class="cls-22"><rect class="cls-23" x="20.34" y="26.12" width="86.35" height="49.52"/></g><path class="cls-24" d="M38,47.73h0a22.23,22.23,0,0,1,3.37.23,21.82,21.82,0,0,1,3.44.88A14.8,14.8,0,0,0,46,45.28a16.53,16.53,0,0,0,.39-3.37q-1.37-.52-2.49-.85a21,21,0,0,0-2.23-.52,19.77,19.77,0,0,0-2.32-.26c-.81,0-1.69-.07-2.65-.07a17.36,17.36,0,0,0-7.14,1.37,14.34,14.34,0,0,0-5.14,3.8A16.06,16.06,0,0,0,21.35,51c-.1.3-.17.62-.25.93a68.8,68.8,0,0,0,8.84,3.43,10.2,10.2,0,0,1,1.89-5A7.27,7.27,0,0,1,38,47.73M68.54,60.48h0q4.47,0,9.1-.27V41H64.15a15.38,15.38,0,0,0-.39,3.47,18,18,0,0,0,.1,1.8,14.87,14.87,0,0,0,.29,1.8h4.39V60.48Zm5.76-34.26h0c-.87-.07-1.68-.1-2.42-.1s-1.47,0-2.32.1a23.59,23.59,0,0,0-2.39.29,26,26,0,0,0-.39,4.39,25.17,25.17,0,0,0,.39,4.39,19.65,19.65,0,0,0,2.42.26q1.31.07,2.36.06t2.39-.06a19.6,19.6,0,0,0,2.39-.26A19.47,19.47,0,0,0,77,33.06q.06-1.11.07-2.16T77,28.71a19.06,19.06,0,0,0-.26-2.19A23.48,23.48,0,0,0,74.31,26.22Zm-20.5.36h0a28,28,0,0,0-4.65.39V59.39c3,.37,6.06.64,9.24.83V27A27.72,27.72,0,0,0,53.81,26.58Zm50,14.47q1.11.33,2.49.85a16.44,16.44,0,0,1-.39,3.37,14.68,14.68,0,0,1-1.25,3.57,21.91,21.91,0,0,0-3.44-.88,22.2,22.2,0,0,0-3.37-.23,7.28,7.28,0,0,0-6.12,2.65Q89.65,53,89.65,58c0,.42,0,.82,0,1.21q-4.74.57-9.37.89c-.06-.68-.09-1.38-.09-2.1a22.85,22.85,0,0,1,1-6.94,16,16,0,0,1,3.08-5.63,14.33,14.33,0,0,1,5.14-3.8A17.36,17.36,0,0,1,96.6,40.2c1,0,1.84,0,2.65.07a19.72,19.72,0,0,1,2.32.26A20.53,20.53,0,0,1,103.8,41.05Z"/><g class="cls-25"><rect class="cls-26" x="114.39" y="47.34" width="121.2" height="36.34"/></g><g class="cls-27"><rect class="cls-28" x="114.81" y="47.76" width="120.35" height="35.49"/></g><path class="cls-24" d="M211.28,63.76V47.85a7.71,7.71,0,0,0-.78-.07l-.78,0-.76,0a7.8,7.8,0,0,0-.81.07V58.8a15.71,15.71,0,0,0-2.49-.59,18.77,18.77,0,0,0-3.1-.26,12.72,12.72,0,0,0-4.86.9,10.46,10.46,0,0,0-3.76,2.58,11.57,11.57,0,0,0-2.42,4.12,15,15,0,0,0-.67,2.92l3.39-.64c.07-.33.15-.66.24-1a9.1,9.1,0,0,1,1.63-3.25,7.5,7.5,0,0,1,2.72-2.11,9.13,9.13,0,0,1,3.86-.76,15.83,15.83,0,0,1,5.45,1v2.9q1.6-.43,3.13-.87"/><path class="cls-24" d="M187.35,58.52a6.68,6.68,0,0,0-.78-.07l-.78,0-.76,0a7,7,0,0,0-.8.07V69.58l3.13-.5Z"/><path class="cls-24" d="M220.43,58.94a9,9,0,0,0-3.34,2.75c-.08.1-.14.22-.22.32a92.24,92.24,0,0,0,10-4,12.07,12.07,0,0,0-1.54-.1,11,11,0,0,0-4.88,1"/><path class="cls-24" d="M120.45,62.73h0a7.54,7.54,0,0,1,8.25-1.38,6.06,6.06,0,0,1,2.09,1.73A7.11,7.11,0,0,1,132,65.58a11.16,11.16,0,0,1,.38,2.89H118.23a9.79,9.79,0,0,1,2.23-5.73m-2.32,8.34h17.25c0-.32.06-.69.07-1.14s0-.8,0-1.09a14.41,14.41,0,0,0-.64-4.38,9.66,9.66,0,0,0-1.9-3.46,8.61,8.61,0,0,0-3.11-2.25,10.44,10.44,0,0,0-4.21-.8,11,11,0,0,0-4.88,1,9,9,0,0,0-3.34,2.75,12.13,12.13,0,0,0-1.94,4.08,18.64,18.64,0,0,0-.64,5c0,.2,0,.39,0,.59q1.62.22,3.32.42C118.14,71.52,118.13,71.3,118.13,71.07Z"/><path class="cls-24" d="M160.39,72.22V61.17h6.54a5.31,5.31,0,0,0,.07-.62c0-.25,0-.51,0-.76s0-.49,0-.71a5.33,5.33,0,0,0-.07-.57h-6.54V51.08h-.19L157.27,54v4.55h-4.12a5.08,5.08,0,0,0-.07.57c0,.22,0,.46,0,.71s0,.51,0,.76a5.11,5.11,0,0,0,.07.62h4.12V72.43l3.13-.21"/><path class="cls-24" d="M171.39,58.52a6.7,6.7,0,0,0-.78-.07l-.78,0-.76,0a7,7,0,0,0-.81.07V71.57l3.13-.32Z"/><path class="cls-24" d="M150.75,70.65a9.56,9.56,0,0,0-2.37-1.3q-1.31-.5-2.58-.92-1-.28-1.87-.62a8,8,0,0,1-1.56-.78,3.62,3.62,0,0,1-1.09-1.09,2.83,2.83,0,0,1-.4-1.54,3.33,3.33,0,0,1,1.21-2.68,6.41,6.41,0,0,1,4.1-1,15.19,15.19,0,0,1,3.2.33,24.73,24.73,0,0,1,2.54.66,19.9,19.9,0,0,0,.66-2.7,15.2,15.2,0,0,0-2.68-.71,19.15,19.15,0,0,0-3.58-.33q-4.4,0-6.51,1.8a5.88,5.88,0,0,0-2.11,4.69,5.25,5.25,0,0,0,2,4.38A8,8,0,0,0,141.75,70q1.16.48,2.35.85l2.13.74a7.76,7.76,0,0,1,1.87.92c.12.09.22.19.33.28q2-.06,4.07-.15a6.48,6.48,0,0,0-1.75-2"/></svg>