<svg id="Camada_1" data-name="Camada 1" xmlns="http://www.w3.org/2000/svg" xmlns:xlink="http://www.w3.org/1999/xlink" viewBox="0 0 612 194"><defs><style>.cls-1{fill:#222220;}.cls-2,.cls-6{fill:#4c5256;}.cls-3{fill:#634d34;}.cls-10,.cls-11,.cls-12,.cls-13,.cls-14,.cls-15,.cls-16,.cls-17,.cls-18,.cls-19,.cls-20,.cls-21,.cls-22,.cls-23,.cls-24,.cls-25,.cls-3,.cls-4,.cls-5,.cls-6,.cls-7,.cls-8,.cls-9{fill-rule:evenodd;}.cls-4{fill:url(#Novo_gradiente_9);}.cls-5{fill:#e6d7b3;}.cls-7{fill:url(#Novo_gradiente_5);}.cls-8{fill:url(#Novo_gradiente);}.cls-9{fill:url(#Novo_gradiente_2);}.cls-10{fill:#fff;}.cls-11{fill:url(#Novo_gradiente_12);}.cls-12{fill:#c2a512;}.cls-13{fill:#f2cb12;}.cls-14{fill:url(#Novo_gradiente_1);}.cls-15{fill:url(#Novo_gradiente_8);}.cls-16{fill:url(#Novo_gradiente_7);}.cls-17{fill:url(#Novo_gradiente_11);}.cls-18{fill:url(#Novo_gradiente_7-2);}.cls-19{fill:url(#Novo_gradiente_10);}.cls-20{fill:url(#Novo_gradiente_10-2);}.cls-21{fill:url(#Novo_gradiente_10-3);}.cls-22{fill:url(#Novo_gradiente_10-4);}.cls-23{fill:url(#Novo_gradiente_10-5);}.cls-24{fill:#a69476;}.cls-25{fill:url(#Novo_gradiente_6);}</style><linearGradient id="Novo_gradiente_9" x1="-641.01" y1="1239.5" x2="-430.6" y2="1239.5" gradientTransform="translate(246.61 -329.45) scale(0.29)" gradientUnits="userSpaceOnUse"><stop offset="0" stop-color="#cdb26d"/><stop offset="0.5" stop-color="#dcc791"/><stop offset="1" stop-color="#cdb26d"/></linearGradient><radialGradient id="Novo_gradiente_5" cx="-490.36" cy="1296.85" r="223.71" gradientTransform="translate(230.81 -259.48) scale(0.28 0.27)" gradientUnits="userSpaceOnUse"><stop offset="0" stop-color="#fff"/><stop offset="1" stop-color="#f2f2f2"/></radialGradient><radialGradient id="Novo_gradiente" cx="-490.36" cy="1288.81" r="199.93" gradientTransform="translate(230.82 -267.79) scale(0.28 0.28)" gradientUnits="userSpaceOnUse"><stop offset="0" stop-color="#599d63"/><stop offset="1" stop-color="#42793f"/></radialGradient><linearGradient id="Novo_gradiente_2" x1="-543.24" y1="1232.71" x2="-332.27" y2="1232.71" gradientTransform="translate(218.64 -340.34) scale(0.29)" gradientUnits="userSpaceOnUse"><stop offset="0" stop-color="#cdb26d"/><stop offset="0.5" stop-color="#e6d7b3"/><stop offset="1" stop-color="#cdb26d"/></linearGradient><radialGradient id="Novo_gradiente_12" cx="-461.15" cy="1415.74" r="140.06" gradientTransform="translate(214.7 -324.64) scale(0.29)" gradientUnits="userSpaceOnUse"><stop offset="0" stop-color="#fffbdc"/><stop offset="1" stop-color="#4bafe8"/></radialGradient><linearGradient id="Novo_gradiente_1" x1="-398.83" y1="1400.28" x2="-586.32" y2="1400.28" gradientTransform="translate(231.63 -296.89) scale(0.29)" gradientUnits="userSpaceOnUse"><stop offset="0.05" stop-color="#f2d4a6"/><stop offset="0.95" stop-color="#fff"/></linearGradient><linearGradient id="Novo_gradiente_8" x1="-581.2" y1="1420.61" x2="-476.89" y2="1420.61" gradientTransform="translate(230.17 -302.71) scale(0.29)" gradientUnits="userSpaceOnUse"><stop offset="0.14" stop-color="#74a5b0"/><stop offset="0.86" stop-color="#9bbec8"/></linearGradient><linearGradient id="Novo_gradiente_7" x1="-456.95" y1="1370.6" x2="-456.95" y2="1310.37" gradientTransform="translate(238.65 -307.02) scale(0.29)" gradientUnits="userSpaceOnUse"><stop offset="0" stop-color="#486f41"/><stop offset="1" stop-color="#77a074"/></linearGradient><linearGradient id="Novo_gradiente_11" x1="-377.28" y1="1400.72" x2="-489.04" y2="1400.72" gradientTransform="translate(230.76 -302.71) scale(0.29)" gradientUnits="userSpaceOnUse"><stop offset="0.1" stop-color="#c19362"/><stop offset="0.9" stop-color="#dfb991"/></linearGradient><linearGradient id="Novo_gradiente_7-2" x1="-459.78" y1="1366.35" x2="-459.78" y2="1340.01" gradientTransform="translate(246.49 -306.42) scale(0.29)" xlink:href="#Novo_gradiente_7"/><linearGradient id="Novo_gradiente_10" x1="-487.22" y1="1295.96" x2="-483.07" y2="1295.96" gradientTransform="translate(223.53 -320.46) scale(0.29)" gradientUnits="userSpaceOnUse"><stop offset="0" stop-color="#d9d9d9"/><stop offset="1" stop-color="#fff"/></linearGradient><linearGradient id="Novo_gradiente_10-2" x1="-487.93" y1="1304.86" x2="-475.91" y2="1304.86" gradientTransform="translate(222.64 -312.38) scale(0.29)" xlink:href="#Novo_gradiente_10"/><linearGradient id="Novo_gradiente_10-3" x1="-488.61" y1="1305.4" x2="-473.94" y2="1305.4" gradientTransform="translate(222.41 -317.55) scale(0.29)" xlink:href="#Novo_gradiente_10"/><linearGradient id="Novo_gradiente_10-4" x1="-493.97" y1="1329.63" x2="-465.56" y2="1329.63" gradientTransform="translate(222 -314.55) scale(0.29)" xlink:href="#Novo_gradiente_10"/><linearGradient id="Novo_gradiente_10-5" x1="-491.93" y1="1299.06" x2="-478.28" y2="1299.06" gradientTransform="translate(223.54 -319.74) scale(0.29)" xlink:href="#Novo_gradiente_10"/><linearGradient id="Novo_gradiente_6" x1="-459.08" y1="1810.32" x2="-277.9" y2="1810.32" gradientTransform="translate(210.87 -471.41) scale(0.32 0.27)" gradientUnits="userSpaceOnUse"><stop offset="0" stop-color="#aa9047"/><stop offset="0.5" stop-color="#bda769"/><stop offset="1" stop-color="#ad934a"/></linearGradient></defs><title>Prancheta 1</title><path class="cls-1" d="M180,153.23c0,1.66,0,2.91,0,3.49.33.58,1.92,1.35,3.71,1.35,2.75,0,5.15-1.67,5.15-4.61,0-1.85-1.06-3.1-2.47-4.26l-.72-.55a3.6,3.6,0,0,1-1.67-2.73,2.16,2.16,0,0,1,2.1-2.25c1.85,0,2.31,1.83,2.48,3.19l.83-.07c0-1.44.1-2.38.19-3.36-.23-.09-.53-.21-1-.34a6.79,6.79,0,0,0-2.24-.37c-2.73,0-4.72,1.78-4.72,4.35,0,1.83,1.25,3,2.38,4l.51.42a4,4,0,0,1,1.8,3.21,2.32,2.32,0,0,1-2.34,2.45c-2.08,0-3-2.64-3.24-4l-.83.07Zm19.44,1.55a4.72,4.72,0,0,1-3.12,1.59c-1.09,0-1.41-1.06-1.41-2.22v-.53c2.33-.62,5.76-1.92,5.76-4.25a2,2,0,0,0-2.29-2.06,6.16,6.16,0,0,0-3.54,1.5,8.39,8.39,0,0,0-2.57,6c0,2.59,1.32,3.22,2.59,3.22s3-.47,5.09-2.62l-.51-.67Zm-2.1-6.34c.39,0,.86.28.86,1.13,0,1.34-.84,2.34-3.14,3.08.39-2.59,1.16-3.59,1.53-3.88a1.11,1.11,0,0,1,.74-.33ZM209.5,155a4.39,4.39,0,0,1-2.61,1.36c-.76,0-1.2-.64-1.2-2.12a11.4,11.4,0,0,1,.95-4.65c.42-.79.79-1.06,1.2-1.06s.83.25,1.46,1.18c.21.33.58.37,1,0a1.51,1.51,0,0,0,.69-1.16c0-.67-.74-1.29-1.9-1.29a6.5,6.5,0,0,0-3.75,1.68,8.55,8.55,0,0,0-2.34,5.9c0,2.15.9,3.17,2.36,3.17a6.56,6.56,0,0,0,4.58-2.41l-.46-.62Zm6.58,2.4c.09-.86.39-2.57.65-3.73a8.64,8.64,0,0,1,1.39-3.24c.39-.58.6-.7.81-.7a1,1,0,0,1,.69.32.45.45,0,0,0,.65,0,3.71,3.71,0,0,0,.74-.81,1.27,1.27,0,0,0,.12-1.34,1.17,1.17,0,0,0-1.06-.69c-.81,0-1.87,1.25-3.05,3.61h0l.23-1.18c.35-1.62.19-2.43-.51-2.43s-2.15.88-3.4,2l.37.65a3.44,3.44,0,0,1,1.32-.79c.16,0,.21.26,0,1.25-.23,1.23-.46,2.53-.74,3.8s-.56,2.57-.81,3.54l.25.23,2.38-.58Zm13.78-2.66a4.74,4.74,0,0,1-3.12,1.59c-1.09,0-1.41-1.06-1.41-2.22v-.53c2.34-.62,5.76-1.92,5.76-4.25a2,2,0,0,0-2.29-2.06,6.17,6.17,0,0,0-3.54,1.5,8.4,8.4,0,0,0-2.57,6c0,2.59,1.32,3.22,2.59,3.22s3-.47,5.09-2.62l-.51-.67Zm-2.11-6.34c.4,0,.86.28.86,1.13,0,1.34-.83,2.34-3.15,3.08.4-2.59,1.16-3.59,1.53-3.88a1.12,1.12,0,0,1,.73-.33Zm7.83.39c-.44,2-.83,4-1.23,5.94-.51,2.52,0,3.29.71,3.29,1.2,0,3.1-1.37,3.87-2.21l-.46-.62a4.07,4.07,0,0,1-1.64.95c-.21,0-.28-.3-.11-1.07.41-2.2.83-4.25,1.3-6.29l1.87-.14.65-1h-2.27c.21-.9.46-2,.72-3.08l-.3-.21-2.5,1.73c-.14.56-.25,1.14-.35,1.55h-1.13l-.69.81.11.3Zm13.4-1.53a7.2,7.2,0,0,0-4.67,2.08,9.38,9.38,0,0,0-2.31,6.08c0,1.74.67,2.6,1.48,2.6a4.24,4.24,0,0,0,2.36-1.16,13.43,13.43,0,0,0,2.15-2.45H248l-.28,1.3c-.44,2.06.16,2.32.55,2.32a7.5,7.5,0,0,0,3.63-2l-.39-.63a3.89,3.89,0,0,1-1.29.72c-.14,0-.21-.18-.1-.92.42-2.52,1.06-5.3,1.57-7.52l-.09-.09a5.69,5.69,0,0,1-1.29-.16,6.82,6.82,0,0,0-1.34-.18Zm-1,1.06a2.3,2.3,0,0,1,1.08.23,18.37,18.37,0,0,1-.95,4.18,16,16,0,0,1-1.57,2.27c-.65.74-1.09,1.06-1.39,1.06s-.42-.37-.42-1.06a12.66,12.66,0,0,1,.79-4.21,5,5,0,0,1,1.27-2.08,1.81,1.81,0,0,1,1.16-.39Zm9.61,9.07c.09-.86.39-2.57.65-3.73a8.68,8.68,0,0,1,1.39-3.24c.39-.58.6-.7.81-.7a1,1,0,0,1,.69.32.45.45,0,0,0,.65,0,3.8,3.8,0,0,0,.74-.81,1.28,1.28,0,0,0,.12-1.34,1.18,1.18,0,0,0-1.07-.69c-.81,0-1.87,1.25-3.05,3.61h0l.23-1.18c.35-1.62.19-2.43-.51-2.43s-2.15.88-3.4,2l.37.65a3.42,3.42,0,0,1,1.32-.79c.16,0,.21.26,0,1.25-.23,1.23-.46,2.53-.74,3.8s-.55,2.57-.81,3.54l.25.23,2.38-.58Zm12.07-2a3.71,3.71,0,0,1-1.27.72c-.16,0-.23-.18-.09-.9.44-2,.9-3.91,1.25-5.16.53-2,.37-2.82-.37-2.82s-2.47.93-3.77,2l.35.67a4,4,0,0,1,1.36-.76c.14,0,.19.19,0,.83-.54,2.26-1,4.16-1.37,5.64-.44,1.95,0,2.41.58,2.41a7.84,7.84,0,0,0,3.7-2l-.39-.63Zm-.3-13.44a1.7,1.7,0,0,0-1.64,1.81,1.21,1.21,0,0,0,1.25,1.27,1.66,1.66,0,0,0,1.66-1.76,1.23,1.23,0,0,0-1.25-1.32ZM280,147.31a7.17,7.17,0,0,0-4.67,2.08,9.36,9.36,0,0,0-2.32,6.08c0,1.74.67,2.6,1.48,2.6a4.21,4.21,0,0,0,2.35-1.16,13.08,13.08,0,0,0,2.15-2.45h0l-.27,1.3c-.44,2.06.16,2.32.55,2.32a7.47,7.47,0,0,0,3.63-2l-.39-.63a3.86,3.86,0,0,1-1.29.72c-.14,0-.21-.18-.09-.92.42-2.52,1.06-5.3,1.57-7.52l-.1-.09a5.64,5.64,0,0,1-1.29-.16,6.84,6.84,0,0,0-1.34-.18Zm-1,1.06a2.3,2.3,0,0,1,1.08.23,18.68,18.68,0,0,1-.95,4.18,16.36,16.36,0,0,1-1.57,2.27c-.65.74-1.09,1.06-1.39,1.06s-.41-.37-.41-1.06a12.61,12.61,0,0,1,.79-4.21,5,5,0,0,1,1.27-2.08,1.81,1.81,0,0,1,1.16-.39Zm25.15,7.12a3.59,3.59,0,0,1-1.29.69c-.19,0-.24-.23-.09-.9.76-4.12,1.62-8.58,2.64-13,.14-.55.07-.8-.21-.8a37.48,37.48,0,0,1-3.93.79l0,.71h.46c.9,0,1,.09.83,1.07s-.42,2.2-.64,3.35a3.31,3.31,0,0,0-.83-.07,7.19,7.19,0,0,0-4.21,1.89,8.91,8.91,0,0,0-2.5,6.18c0,1.85.71,2.69,1.64,2.69a4.14,4.14,0,0,0,2.5-1.23,15.52,15.52,0,0,0,2.08-2.29h0l-.28,1.3c-.39,1.87.1,2.23.63,2.23a7.43,7.43,0,0,0,3.56-2l-.37-.62Zm-3.84-7.12a2.2,2.2,0,0,1,1.29.35,22.59,22.59,0,0,1-1.08,4.44,11.72,11.72,0,0,1-1.46,2,2.63,2.63,0,0,1-1.46,1c-.34,0-.53-.46-.53-1.22a12.33,12.33,0,0,1,.79-4.09,4.94,4.94,0,0,1,1.2-2,1.88,1.88,0,0,1,1.23-.44Zm13.29-1.06a6.32,6.32,0,0,0-3,.93,7.24,7.24,0,0,0-3.12,6.26c0,1.66.65,3.57,3,3.57a6,6,0,0,0,3.68-1.44,8.18,8.18,0,0,0,2.43-5.83c0-2.08-1-3.49-3-3.49Zm-.85,1c.76,0,1.16.76,1.16,2.43a11.64,11.64,0,0,1-.62,4,4.94,4.94,0,0,1-1.06,1.92,1.22,1.22,0,0,1-.83.3c-.69,0-1.2-.93-1.2-2.57,0-3.61,1.2-5.62,2-6a1.35,1.35,0,0,1,.57-.12Zm19.1-5.34c-.54,0-.72-.07-.93-.58h-.53c-.21,1.18-.62,2.73-1.06,4.28h.83a7.08,7.08,0,0,1,1.18-2,2.55,2.55,0,0,1,2.08-.72H334l-2.08,10.87c-.35,1.8-.55,2-2.22,2.15l-.13.76H336l.16-.76c-1.82-.14-2-.35-1.61-2.15l2.1-10.87h.85c.84,0,1.37.18,1.62.58a4.8,4.8,0,0,1,.39,2.11l.83,0c.18-1.46.42-3.24.63-4.21h-.56c-.4.44-.58.58-1.06.58Zm11.32,14.43c.09-.86.39-2.57.64-3.73a8.7,8.7,0,0,1,1.39-3.24c.39-.58.6-.7.81-.7a1,1,0,0,1,.69.32.45.45,0,0,0,.65,0,3.71,3.71,0,0,0,.74-.81,1.26,1.26,0,0,0,.11-1.34,1.17,1.17,0,0,0-1.06-.69c-.81,0-1.87,1.25-3.05,3.61h0l.22-1.18c.35-1.62.19-2.43-.5-2.43s-2.15.88-3.4,2l.37.65a3.49,3.49,0,0,1,1.32-.79c.16,0,.21.26,0,1.25-.23,1.23-.46,2.53-.74,3.8s-.55,2.57-.81,3.54l.26.23,2.38-.58Zm13.45-10.13a7.16,7.16,0,0,0-4.67,2.08,9.35,9.35,0,0,0-2.31,6.08c0,1.74.67,2.6,1.48,2.6a4.23,4.23,0,0,0,2.36-1.16,13.22,13.22,0,0,0,2.16-2.45h0l-.28,1.3c-.44,2.06.16,2.32.55,2.32a7.5,7.5,0,0,0,3.63-2l-.39-.63a3.85,3.85,0,0,1-1.29.72c-.14,0-.21-.18-.09-.92.41-2.52,1.06-5.3,1.57-7.52l-.09-.09a5.58,5.58,0,0,1-1.29-.16,6.85,6.85,0,0,0-1.35-.18Zm-1,1.06a2.31,2.31,0,0,1,1.09.23,19,19,0,0,1-.95,4.18,16.68,16.68,0,0,1-1.57,2.27c-.65.74-1.09,1.06-1.39,1.06s-.42-.37-.42-1.06a12.65,12.65,0,0,1,.79-4.21,5,5,0,0,1,1.27-2.08,1.82,1.82,0,0,1,1.16-.39Zm13,.6c.49,0,.72.44.72,1.23,0,2.63-1.2,5.71-2.13,6.43a1.5,1.5,0,0,1-1,.35c-.69,0-1.28-.61-.9-2.59.44-2.5.58-3,1.23-3.84s1.43-1.57,2-1.57Zm-4.9-6h.44c.88,0,1,.14.76,1.23-.6,3.17-1.32,6.59-2.06,10.27a4.52,4.52,0,0,0-.12,2.45c.23.65,1,1.16,2.36,1.16a6.33,6.33,0,0,0,3.72-1.32,9.59,9.59,0,0,0,3.19-6.89c0-1.6-.65-2.55-1.82-2.55s-2.5.76-4,2.34h0c.48-1.94,1-4.58,1.62-7.31.16-.6.14-.88-.16-.88a27.49,27.49,0,0,1-3.84.79l-.07.71Zm18.1,4.35a7.18,7.18,0,0,0-4.67,2.08,9.36,9.36,0,0,0-2.31,6.08c0,1.74.67,2.6,1.48,2.6a4.22,4.22,0,0,0,2.36-1.16,13.43,13.43,0,0,0,2.15-2.45h0l-.28,1.3c-.44,2.06.16,2.32.55,2.32a7.49,7.49,0,0,0,3.63-2l-.39-.63a3.87,3.87,0,0,1-1.3.72c-.14,0-.21-.18-.09-.92.41-2.52,1.06-5.3,1.57-7.52l-.09-.09a5.67,5.67,0,0,1-1.3-.16,6.8,6.8,0,0,0-1.34-.18Zm-1,1.06a2.29,2.29,0,0,1,1.09.23,18.49,18.49,0,0,1-.94,4.18,16.34,16.34,0,0,1-1.58,2.27c-.64.74-1.08,1.06-1.39,1.06s-.42-.37-.42-1.06a12.7,12.7,0,0,1,.79-4.21,5,5,0,0,1,1.27-2.08,1.82,1.82,0,0,1,1.16-.39Zm10.86,7.1a3.65,3.65,0,0,1-1.25.72c-.16,0-.23-.21-.1-.92.74-4.19,1.62-8.51,2.55-12.82.16-.69.14-1-.19-1s-2,.6-3.82.79l-.09.71h.49c.95,0,1,.12.81,1.25-.72,3.7-1.53,7.73-2.24,11.31-.42,2.06,0,2.55.55,2.55a6.88,6.88,0,0,0,3.68-2l-.39-.63Zm12.87,0a4,4,0,0,1-1.3.67c-.16,0-.2-.18-.06-.83.39-1.94.85-3.77,1.09-4.74.69-2.91-.28-3.29-.81-3.29a3.38,3.38,0,0,0-1.67.55,12.17,12.17,0,0,0-3.17,2.68h0c.53-2.38,1.13-5.27,1.76-8.12.16-.67.14-1-.16-1a28.56,28.56,0,0,1-3.86.79l-.07.71h.6c.77,0,.86.17.65,1.3-.6,3.24-1.34,6.75-2,10.18-.26,1.27-.54,2.45-.74,3.4l.25.23,2.4-.65a29.87,29.87,0,0,1,1-4.89,8,8,0,0,1,1.69-2.38c.74-.67,1.2-1,1.57-1s.42.39.18,1.44c-.39,1.78-.83,3.61-1.15,5-.45,1.94,0,2.46.5,2.46a7.39,7.39,0,0,0,3.75-1.93l-.4-.65Zm9.59-8.18a6.34,6.34,0,0,0-3,.93,7.24,7.24,0,0,0-3.12,6.26c0,1.66.65,3.57,3,3.57a6,6,0,0,0,3.68-1.44,8.18,8.18,0,0,0,2.43-5.83c0-2.08-1-3.49-3-3.49Zm-.86,1c.76,0,1.16.76,1.16,2.43a11.63,11.63,0,0,1-.63,4,4.84,4.84,0,0,1-1.06,1.92,1.21,1.21,0,0,1-.83.3c-.7,0-1.2-.93-1.2-2.57,0-3.61,1.2-5.62,2-6a1.35,1.35,0,0,1,.58-.12Zm-226,31.89a4.73,4.73,0,0,1-3.12,1.59c-1.09,0-1.41-1.06-1.41-2.22v-.53c2.34-.63,5.76-1.92,5.76-4.26a2,2,0,0,0-2.29-2.06,6.15,6.15,0,0,0-3.54,1.5,8.41,8.41,0,0,0-2.57,6c0,2.59,1.32,3.22,2.59,3.22s3-.46,5.09-2.61l-.51-.67Zm-2.1-6.34c.39,0,.85.28.85,1.13,0,1.35-.83,2.34-3.14,3.08.39-2.59,1.15-3.58,1.52-3.89a1.14,1.14,0,0,1,.74-.33Zm16.29-5.43-.19.76c1.46.1,1.64.37,1.3,2.17l-1.78,9c-.32,1.69-.58,1.94-2,2l-.16.77h4.65a10.06,10.06,0,0,0,6-1.67,9.05,9.05,0,0,0,3.4-7.21c0-3.91-2.15-5.9-6.43-5.9Zm3.91,1.83a1.16,1.16,0,0,1,.28-.74,1.23,1.23,0,0,1,.74-.16c2,0,3.47,1.39,3.47,4.6,0,4.45-2.38,8.28-5.55,8.28-.53,0-.9-.18-1-.58a3.74,3.74,0,0,1,.07-1.39l2-10Zm17.33,9.95a4.73,4.73,0,0,1-3.12,1.59c-1.08,0-1.41-1.06-1.41-2.22v-.53c2.34-.63,5.76-1.92,5.76-4.26a2,2,0,0,0-2.29-2.06,6.17,6.17,0,0,0-3.54,1.5,8.41,8.41,0,0,0-2.57,6c0,2.59,1.32,3.22,2.59,3.22s3-.46,5.08-2.61l-.51-.67Zm-2.1-6.34c.4,0,.86.28.86,1.13,0,1.35-.83,2.34-3.15,3.08.39-2.59,1.16-3.58,1.53-3.89a1.12,1.12,0,0,1,.74-.33Zm10.56-1.13a4.33,4.33,0,0,0-2.73,1.2,3.36,3.36,0,0,0-1.25,2.57c0,1.2,1.13,2,2,2.7s1.27,1.25,1.27,1.92a.94.94,0,0,1-1,.94,3.44,3.44,0,0,1-2.11-1.4.68.68,0,0,0-.95-.09,1.63,1.63,0,0,0-.72,1.3c0,.94,1.39,1.62,2.29,1.62,2.13,0,4.46-1.71,4.46-3.87a3.37,3.37,0,0,0-1.89-2.73c-.95-.67-1.55-1.24-1.53-1.85a.9.9,0,0,1,.92-.92,2.46,2.46,0,0,1,1.69,1.11c.21.23.51.25.9,0a1.53,1.53,0,0,0,.6-1.15c0-.72-.83-1.31-1.94-1.31Zm11.74,7.47a4.73,4.73,0,0,1-3.12,1.59c-1.08,0-1.41-1.06-1.41-2.22v-.53c2.34-.63,5.76-1.92,5.76-4.26a2,2,0,0,0-2.29-2.06,6.15,6.15,0,0,0-3.54,1.5,8.4,8.4,0,0,0-2.57,6c0,2.59,1.32,3.22,2.59,3.22s3-.46,5.09-2.61l-.51-.67Zm-2.1-6.34c.4,0,.85.28.85,1.13,0,1.35-.83,2.34-3.15,3.08.39-2.59,1.16-3.58,1.53-3.89a1.13,1.13,0,0,1,.74-.33Zm8.85,9a28.33,28.33,0,0,1,1.11-4.81,9.4,9.4,0,0,1,1.62-2.33A3.38,3.38,0,0,1,254,174.6c.32,0,.39.42.12,1.53-.46,1.76-.92,3.59-1.29,5.06-.49,1.85-.07,2.34.49,2.34a7.57,7.57,0,0,0,3.79-2l-.39-.6a4,4,0,0,1-1.29.69c-.17,0-.21-.23,0-.95.42-1.74.88-3.59,1.18-4.77.72-2.82-.18-3.16-.76-3.16a3.18,3.18,0,0,0-1.62.53,11.22,11.22,0,0,0-3.31,2.94h0l.28-1.11c.35-1.57.18-2.36-.56-2.36s-2.29.87-3.56,2l.37.67a3.58,3.58,0,0,1,1.29-.76c.16,0,.21.21,0,1.06-.53,2.71-1.25,5.52-1.76,7.52l.21.21,2.43-.56Zm10.54-7.45a2.84,2.84,0,0,1,1.25-.78c.23,0,.28.44.35,1.38.16,2,.23,5.58.23,7.47h1.09c1.36-1.71,3.33-4.54,4.67-6.32,1.11-1.48,1.48-2.34,1.48-3,0-.88-.49-1.41-1.18-1.41a1.25,1.25,0,0,0-1.3,1.26,7.21,7.21,0,0,1,.21,1.07,5.67,5.67,0,0,1-1,2.94c-.58.9-.95,1.46-1.62,2.34h0c0-1.32,0-3.63,0-5,0-1.64-.33-2.56-1.13-2.56s-2.38,1-3.33,2.08l.41.6Zm17.31-2.68a6.32,6.32,0,0,0-3,.92A7.25,7.25,0,0,0,271.3,180c0,1.67.65,3.56,3,3.56a6,6,0,0,0,3.68-1.44,8.18,8.18,0,0,0,2.42-5.83c0-2.08-1-3.49-3-3.49Zm-.86,1c.76,0,1.15.76,1.15,2.43a11.61,11.61,0,0,1-.62,4,5,5,0,0,1-1.06,1.92,1.24,1.24,0,0,1-.83.3c-.7,0-1.21-.92-1.21-2.57,0-3.61,1.21-5.62,2-6a1.35,1.35,0,0,1,.58-.12Zm10.83,7.13a3.72,3.72,0,0,1-1.25.72c-.16,0-.23-.21-.09-.93.74-4.19,1.62-8.51,2.54-12.82.16-.69.14-1-.19-1s-2,.6-3.81.79l-.09.72H285c1,0,1,.12.81,1.25-.71,3.7-1.53,7.73-2.24,11.31-.42,2.06,0,2.54.55,2.54a6.91,6.91,0,0,0,3.68-2l-.39-.62Zm3.35-5.48a2.85,2.85,0,0,1,1.25-.78c.23,0,.28.44.35,1.38.16,2,.23,5.58.23,7.47h1.08c1.36-1.71,3.33-4.54,4.67-6.32,1.11-1.48,1.48-2.34,1.48-3,0-.88-.49-1.41-1.18-1.41a1.24,1.24,0,0,0-1.29,1.26,7.19,7.19,0,0,1,.21,1.07,5.67,5.67,0,0,1-1,2.94c-.57.9-.94,1.46-1.61,2.34h0c0-1.32,0-3.63,0-5,0-1.64-.32-2.56-1.13-2.56s-2.38,1-3.33,2.08l.42.6Zm16.41,5.48a3.72,3.72,0,0,1-1.27.72c-.16,0-.23-.19-.09-.9.44-2,.9-3.91,1.25-5.16.54-2,.37-2.82-.37-2.82s-2.47.92-3.77,2l.35.67a4,4,0,0,1,1.36-.76c.14,0,.18.19,0,.83-.53,2.27-1,4.16-1.36,5.64-.44,1.94,0,2.41.58,2.41a7.8,7.8,0,0,0,3.7-2l-.39-.62Zm-.3-13.44a1.7,1.7,0,0,0-1.64,1.81,1.21,1.21,0,0,0,1.25,1.27,1.67,1.67,0,0,0,1.66-1.76,1.23,1.23,0,0,0-1.25-1.32Zm6.47,15.4a26.83,26.83,0,0,1,1-4.65,8,8,0,0,1,1.73-2.52,3.12,3.12,0,0,1,1.57-1.09c.3,0,.32.39.12,1.41-.39,2-1.41,6-1.71,7.2l.23.23,2.43-.58a28.52,28.52,0,0,1,1.09-4.74,7.3,7.3,0,0,1,1.76-2.5,3,3,0,0,1,1.55-1c.32,0,.37.44.12,1.48-.44,1.85-.93,3.66-1.3,5.11-.46,1.8-.07,2.29.51,2.29a7.55,7.55,0,0,0,3.79-1.9l-.4-.65a3.88,3.88,0,0,1-1.29.67c-.16,0-.21-.21,0-.95.42-1.71.85-3.59,1.11-4.65.77-2.93-.16-3.28-.79-3.28a3,3,0,0,0-1.47.48,12.54,12.54,0,0,0-3.29,2.82h0l.19-.74c.44-2.22-.3-2.56-.79-2.56a2.87,2.87,0,0,0-1.51.48,11.7,11.7,0,0,0-3.26,2.91h0l.25-.94c.35-1.64.14-2.45-.6-2.45s-2.24.85-3.56,2l.4.65a3.83,3.83,0,0,1,1.29-.76c.18,0,.18.23,0,1.11-.37,2-1.39,6.15-1.76,7.47l.26.23,2.42-.58Zm23.12-2.66a4.73,4.73,0,0,1-3.12,1.59c-1.08,0-1.41-1.06-1.41-2.22v-.53c2.33-.63,5.76-1.92,5.76-4.26a2,2,0,0,0-2.29-2.06,6.17,6.17,0,0,0-3.54,1.5,8.42,8.42,0,0,0-2.56,6c0,2.59,1.32,3.22,2.59,3.22s3-.46,5.09-2.61l-.51-.67Zm-2.1-6.34c.39,0,.86.28.86,1.13,0,1.35-.84,2.34-3.15,3.08.39-2.59,1.16-3.58,1.53-3.89a1.14,1.14,0,0,1,.74-.33Z"/><path class="cls-1" d="M343.21,182.9a28.57,28.57,0,0,1,1.11-4.81,9.64,9.64,0,0,1,1.62-2.33,3.38,3.38,0,0,1,1.71-1.16c.32,0,.39.42.11,1.53-.46,1.76-.92,3.58-1.29,5.06-.48,1.85-.07,2.34.49,2.34a7.55,7.55,0,0,0,3.79-2l-.39-.59a4,4,0,0,1-1.3.69c-.16,0-.2-.24,0-1,.42-1.73.88-3.58,1.18-4.76.72-2.82-.19-3.17-.77-3.17a3.21,3.21,0,0,0-1.62.53,11.21,11.21,0,0,0-3.31,2.94h0l.28-1.11c.35-1.57.19-2.36-.55-2.36s-2.29.88-3.56,2l.37.68a3.64,3.64,0,0,1,1.29-.77c.16,0,.21.21,0,1.06-.53,2.71-1.25,5.53-1.76,7.51l.21.22,2.43-.56Zm12.34-8.6c-.44,2-.83,4-1.23,5.94-.51,2.52,0,3.29.72,3.29,1.21,0,3.1-1.37,3.86-2.2l-.46-.62a4.16,4.16,0,0,1-1.64,1c-.21,0-.28-.3-.12-1.07.41-2.2.83-4.25,1.29-6.29l1.87-.14.65-1h-2.27c.21-.9.46-2,.72-3.07l-.3-.21-2.5,1.74c-.14.55-.25,1.13-.35,1.55h-1.13l-.7.81.12.3Zm12.62-1.53a6.32,6.32,0,0,0-3,.93A7.24,7.24,0,0,0,362,180c0,1.67.65,3.56,3,3.56a6,6,0,0,0,3.68-1.44,8.17,8.17,0,0,0,2.43-5.83c0-2.08-1-3.49-3-3.49Zm-.85,1c.76,0,1.15.76,1.15,2.43a11.6,11.6,0,0,1-.62,4,5,5,0,0,1-1.06,1.92,1.25,1.25,0,0,1-.83.3c-.69,0-1.2-.93-1.2-2.57,0-3.61,1.2-5.62,2-6a1.34,1.34,0,0,1,.58-.12Zm15.28,4.88c0,1.67,0,2.91,0,3.5.33.58,1.92,1.34,3.7,1.34,2.75,0,5.16-1.66,5.16-4.61,0-1.85-1.06-3.1-2.47-4.25l-.72-.55a3.6,3.6,0,0,1-1.66-2.73,2.16,2.16,0,0,1,2.1-2.24c1.85,0,2.31,1.83,2.48,3.19l.83-.08c0-1.44.09-2.38.18-3.35-.23-.09-.53-.21-.95-.35a6.78,6.78,0,0,0-2.24-.37c-2.73,0-4.72,1.78-4.72,4.35,0,1.83,1.25,3,2.38,4l.51.41a4,4,0,0,1,1.8,3.22,2.32,2.32,0,0,1-2.34,2.45c-2.08,0-3-2.64-3.24-4l-.83.07Zm18.49-5.92a6.29,6.29,0,0,0-3,.93,7.24,7.24,0,0,0-3.12,6.27c0,1.67.64,3.56,3,3.56a6,6,0,0,0,3.68-1.44,8.19,8.19,0,0,0,2.43-5.83c0-2.08-1-3.49-3-3.49Zm-.86,1c.76,0,1.16.76,1.16,2.43a11.64,11.64,0,0,1-.63,4,5,5,0,0,1-1.06,1.92,1.23,1.23,0,0,1-.83.3c-.7,0-1.21-.93-1.21-2.57,0-3.61,1.21-5.62,2-6a1.35,1.35,0,0,1,.58-.12Zm13.43,6.68a4.31,4.31,0,0,1-2.61,1.37c-.76,0-1.21-.65-1.21-2.13a11.4,11.4,0,0,1,.95-4.65c.42-.79.79-1.07,1.21-1.07s.83.26,1.46,1.18c.21.33.58.37,1,0a1.51,1.51,0,0,0,.7-1.16c0-.67-.74-1.3-1.9-1.3a6.41,6.41,0,0,0-3.74,1.69,8.51,8.51,0,0,0-2.34,5.9c0,2.15.9,3.17,2.36,3.17a6.55,6.55,0,0,0,4.58-2.41l-.46-.63Zm8.27.45a3.76,3.76,0,0,1-1.28.72c-.16,0-.23-.19-.09-.9.44-2,.9-3.91,1.25-5.16.53-2,.37-2.82-.37-2.82s-2.47.93-3.77,2l.34.67a3.94,3.94,0,0,1,1.37-.76c.14,0,.18.19,0,.83-.53,2.27-1,4.16-1.37,5.64-.44,1.94,0,2.41.58,2.41a7.8,7.8,0,0,0,3.7-2l-.39-.62Zm-.3-13.44a1.71,1.71,0,0,0-1.65,1.8,1.21,1.21,0,0,0,1.25,1.27,1.67,1.67,0,0,0,1.67-1.76,1.23,1.23,0,0,0-1.25-1.32Zm10.65,5.27a7.21,7.21,0,0,0-4.68,2.08,9.35,9.35,0,0,0-2.31,6.08c0,1.73.67,2.59,1.48,2.59a4.25,4.25,0,0,0,2.36-1.16,13.79,13.79,0,0,0,2.15-2.45h0l-.28,1.29c-.44,2.06.17,2.32.56,2.32a7.47,7.47,0,0,0,3.63-2l-.39-.62a4,4,0,0,1-1.3.72c-.14,0-.21-.19-.09-.93.41-2.52,1.06-5.29,1.57-7.52l-.09-.09a6.07,6.07,0,0,1-1.3-.16,6.66,6.66,0,0,0-1.34-.19Zm-1,1.06a2.32,2.32,0,0,1,1.09.23,18.71,18.71,0,0,1-1,4.19,16,16,0,0,1-1.57,2.27c-.64.74-1.09,1.06-1.39,1.06s-.42-.37-.42-1.06a12.66,12.66,0,0,1,.79-4.21,5,5,0,0,1,1.28-2.09,1.82,1.82,0,0,1,1.16-.39Zm10.86,7.1a3.7,3.7,0,0,1-1.25.72c-.16,0-.23-.21-.09-.93.74-4.19,1.62-8.51,2.55-12.82.16-.69.14-1-.19-1s-2,.6-3.81.79l-.1.72h.49c.95,0,1,.12.81,1.25-.71,3.7-1.52,7.73-2.24,11.31-.42,2.06,0,2.55.55,2.55a6.89,6.89,0,0,0,3.68-2l-.39-.62Z"/><path class="cls-2" d="M180.13,82.3v1.75c4.76.38,5.26.87,5.26,7.6v22c0,6.76-.5,7.26-5.89,7.64V123h30.56c.5-1.76,1.88-8.14,2.13-10.27l-1.88-.38a20,20,0,0,1-3.2,6.33c-1.31,1.57-4.2,1.82-7.33,1.82-2.63,0-4.89-.06-6-.81s-1.38-2.57-1.38-6.2V103.22h5.39c5.39,0,5.51.25,6.14,5.2h2V95.08h-2c-.63,4.89-.75,5.26-6.14,5.26h-5.39V87c0-2.24.13-2.24,2.5-2.24H198c3.88,0,5.88.38,6.95,1.43s1.7,2.67,2.32,5.67l1.88-.12c-.38-3.86-.62-8.48-.75-9.48ZM212,113.93c.56,3,1.19,6.63,1.56,7.58a15.19,15.19,0,0,0,8.15,2.27c6.83,0,11.65-3.46,11.65-9-.06-5-3.95-7.39-8.39-9l-1.57-.56c-2.44-.88-4.26-2.26-4.26-4.58a4.13,4.13,0,0,1,4.32-4.13c3.32,0,5.51,2.76,6.52,6.26l1.94-.25c-.44-3.13-.69-5.32-.94-7a27.59,27.59,0,0,0-6.64-1.26c-7.2,0-11.09,3.76-11.09,8.89,0,4.26,3.88,6.39,7.52,7.83l1.69.63c3.2,1.25,4.7,3.2,4.7,5.7s-2.06,4.13-4.82,4.13c-4.2,0-7.46-4.57-8.39-7.7l-1.94.13Zm39.18-16.66h2.44c2.38,0,3.88.25,4.69,1.07s1.19,1.82,1.69,4.38l1.82-.12c-.25-2.44-.56-6.39-.56-8.58h-1a2.39,2.39,0,0,1-2.45,1.06H238.38c-1.5,0-2-.12-2.7-1.06h-1c-.06,2.19-.38,5.26-.57,8.71h1.76c.56-2.38,1.13-3.51,1.69-4.13s1.94-1.32,5.64-1.32h1.44v18.85c0,4.57-.37,4.88-4.57,5.13V123H256v-1.76c-4.38-.25-4.76-.56-4.76-5.13V97.27ZM274.92,123h14.22v-1.76c-2.63-.25-3.88-.37-5.32-3.82l-9.46-23.11-2.32.5-9.33,21.86c-1.75,4.13-2.88,4.26-5.51,4.57V123h11.34v-1.76l-1.45-.12c-1.75-.19-2.13-.69-1.56-2.57s1.25-3.82,1.5-4.51h8.58l1.5,3.76c1.06,2.69.75,3.13-1,3.32l-1.19.12V123Zm-3.82-20.23h.19l3.44,8.89h-7l3.38-8.89Zm18.32-7.7v1.75c3.63.25,4,.5,4,5.14v14.15c0,4.57-.37,4.88-4.38,5.13V123h13.47c10.14,0,18.54-4.51,18.54-15.16a12.05,12.05,0,0,0-3.82-9c-3.13-2.75-7.7-3.75-12.9-3.75ZM300,99.84a3.83,3.83,0,0,1,.37-2.19c.25-.25,1-.37,3-.37,6.58,0,10.4,3.57,10.4,11.59,0,7.26-3.51,11.9-10.28,11.9-3,0-3.51-1-3.51-4.58V99.84Zm30.84,8.39c0-7.33,3.57-11.65,7.7-11.65,5.64,0,8.71,6.7,8.71,13.4,0,8.33-3.7,11.53-7.7,11.53-5.26,0-8.71-5.64-8.71-13.28Zm8.27-13.91c-7.33,0-15.65,4.95-15.65,15.35,0,6.7,5.26,14.1,15.65,14.1,8,0,15.53-5.27,15.53-15.17,0-7.89-6-14.28-15.53-14.28Z"/><path class="cls-2" d="M366.41,101.39v1.35c2.81.2,3.1.39,3.1,4v11c0,3.54-.29,3.79-3.4,4V123h10.43c7.86,0,14.35-3.49,14.35-11.74a9.3,9.3,0,0,0-3-7c-2.43-2.14-6-2.91-10-2.91Zm8.19,3.68a2.9,2.9,0,0,1,.3-1.7c.19-.2.77-.29,2.33-.29,5.09,0,8,2.76,8,9,0,5.62-2.71,9.21-7.95,9.21-2.33,0-2.72-.77-2.72-3.54V105.07Zm22.94,6.5c0-5.67,2.76-9,6-9,4.36,0,6.74,5.19,6.74,10.37,0,6.45-2.86,8.92-6,8.92-4.08,0-6.74-4.36-6.74-10.28Zm6.4-10.76c-5.67,0-12.12,3.83-12.12,11.88,0,5.19,4.07,10.91,12.12,10.91,6.16,0,12-4.08,12-11.74,0-6.11-4.65-11.05-12-11.05Z"/><path class="cls-2" d="M465.16,92.88c-.37-3.63-.62-6.39-1.13-9.9a46,46,0,0,0-11.27-1.63c-14,0-24.17,8.83-24.17,22,0,9.9,6.63,20.61,23,20.61a50.9,50.9,0,0,0,11.77-1.89,93.42,93.42,0,0,0,3.13-10.4l-1.75-.37c-3.25,6.64-6.39,10.15-13.15,10.15-9.14,0-14.91-8.08-14.91-19.73,0-9.27,4.63-17.85,14.91-17.85,5.83,0,9.77,2.13,11.77,9.27l1.76-.25Zm5.35,23.17c0,4.63-.31,4.95-4.57,5.19V123h24.36c.38-1.19,1.32-6,1.63-7.58l-1.88-.19a11.58,11.58,0,0,1-2.13,4.26c-1.06,1.06-3.07,1.32-5.26,1.32a10.43,10.43,0,0,1-4.38-.56c-.88-.44-1.19-1.88-1.19-4.32v-6.2h4.13c3.63,0,3.76.19,4.26,3.38h1.82v-9.33h-1.82c-.5,3.2-.63,3.45-4.26,3.45h-4.13v-8.4c0-1.56.06-1.56,1.81-1.56h2.38c3,0,4.38.5,4.95,1.07s1.19,1.88,1.63,4.19l1.82-.12c-.25-3.19-.43-6.14-.5-7.33H466.38v1.75c3.82.19,4.13.5,4.13,5.14v14.09Zm37.68,7h14.21v-1.76c-2.63-.25-3.88-.37-5.33-3.82l-9.45-23.11-2.32.5L496,116.68c-1.75,4.13-2.88,4.26-5.51,4.57V123H501.8v-1.76l-1.44-.12c-1.76-.19-2.13-.69-1.57-2.56s1.25-3.82,1.5-4.51h8.58l1.5,3.76c1.07,2.69.75,3.13-1,3.32l-1.19.12V123Zm-3.82-20.23h.19l3.44,8.89h-7l3.38-8.89ZM533,99.08c0-1.75.13-1.81,2.69-1.81,3.13,0,5.89,1.81,5.89,5.83a5.64,5.64,0,0,1-2.5,5.13,8.1,8.1,0,0,1-4.08.88h-2v-10Zm0,12h1c1.87,0,2.38.25,3.13,1.56,1.06,1.75,2.7,4.82,4.2,6.83,1.69,2.26,3.38,3.83,9,3.89h2.5l.19-1.64a10.58,10.58,0,0,1-3.13-1.82,25.27,25.27,0,0,1-3.44-4.2c-1.32-1.88-3.32-4.89-4.07-6.2,3.45-1.13,6.08-3.45,6.08-7.14a6.75,6.75,0,0,0-3.13-5.89,14,14,0,0,0-7.08-1.44H522.56v1.75c3.76.25,4.13.5,4.13,5.14v14.15c0,4.57-.38,4.88-4.32,5.13V123h14.9v-1.76c-3.88-.25-4.26-.56-4.26-5.13v-5ZM568.44,123h14.22v-1.76c-2.64-.25-3.88-.37-5.32-3.82l-9.46-23.11-2.31.5-9.34,21.86c-1.75,4.13-2.88,4.26-5.51,4.57V123h11.34v-1.76l-1.45-.12c-1.75-.19-2.13-.69-1.57-2.56s1.26-3.82,1.51-4.51h8.58l1.5,3.76c1.07,2.69.75,3.13-1,3.32l-1.19.12V123Zm-3.82-20.23h.18l3.44,8.89h-7l3.39-8.89Zm-2.7-10.46,1.38.75,8.89-7.64c1.19-1.07,1.44-1.94.13-2.63l-1.13-.69c-1.12-.56-1.81-.69-2.69.63l-6.58,9.58Z"/><path class="cls-2" d="M216.56,60.56c0-4.38.25-4.64,3.51-5.14V53.55H202.65v1.88c6.64.5,6.89.88,6.89,5.14v5.26c0,2.51-.5,3.57-1.69,4.07a10,10,0,0,1-4.2.69c-11.4,0-15.53-10-15.53-19.6,0-11.4,5.89-18,14.53-18,5.14,0,10.4,1.63,12,9.52l2-.25c-.5-4.76-.88-8-1-10.15a51.93,51.93,0,0,0-12-1.63C191.38,30.5,180,38,180,52.23c0,12.53,9.33,20.87,23.29,20.87,4.76,0,9.77-1.52,13.66-2.64a23.37,23.37,0,0,1-.38-5.57V60.56Zm10.93-3.2c0-7.33,3.57-11.65,7.7-11.65,5.64,0,8.71,6.7,8.71,13.4,0,8.33-3.7,11.52-7.71,11.52-5.26,0-8.7-5.64-8.7-13.28Zm8.27-13.9c-7.33,0-15.66,4.95-15.66,15.34,0,6.7,5.26,14.1,15.66,14.1,8,0,15.53-5.27,15.53-15.17,0-7.89-6-14.28-15.53-14.28ZM267,72.6C270.6,63.82,276,52,276.55,51c2.07-3.88,2.76-4.7,6-5V44.22H271V46l1.19.12c2.19.25,2.32,1,1.5,3.19S269.35,61.07,268,64.13L261.59,49c-.88-2-.82-2.69.94-2.88l1.56-.19V44.22h-14.4V46c2.88.25,3.82.69,5.13,3.69l9.83,22.93Zm18.57-7.4c0,4.63-.32,4.95-4.57,5.2v1.75h24.36c.38-1.19,1.32-6,1.63-7.58l-1.88-.19A11.67,11.67,0,0,1,303,68.64C302,69.71,299.94,70,297.75,70a10.44,10.44,0,0,1-4.38-.56c-.88-.44-1.19-1.88-1.19-4.32v-6.2h4.13c3.63,0,3.76.19,4.26,3.38h1.82V52.92h-1.82c-.5,3.19-.63,3.44-4.26,3.44h-4.13V48c0-1.57.06-1.57,1.81-1.57h2.38c3,0,4.39.5,4.95,1.07s1.19,1.88,1.63,4.2l1.82-.13c-.25-3.19-.44-6.14-.5-7.33H281.47V46c3.82.19,4.13.5,4.13,5.13V65.2Zm32.22-17c0-1.75.12-1.82,2.69-1.82,3.13,0,5.89,1.82,5.89,5.82a5.64,5.64,0,0,1-2.51,5.14,8.08,8.08,0,0,1-4.07.88h-2v-10Zm0,12h1c1.88,0,2.38.25,3.13,1.57,1.06,1.75,2.7,4.82,4.2,6.83,1.69,2.25,3.38,3.83,9,3.89h2.51l.19-1.64a10.56,10.56,0,0,1-3.13-1.82,25.06,25.06,0,0,1-3.44-4.2c-1.32-1.88-3.32-4.89-4.07-6.2,3.45-1.13,6.07-3.45,6.07-7.14a6.74,6.74,0,0,0-3.13-5.89A14,14,0,0,0,323,44.22H307.37V46c3.76.25,4.13.5,4.13,5.13V65.26c0,4.57-.38,4.88-4.32,5.14v1.75h14.91V70.4c-3.88-.25-4.26-.57-4.26-5.14v-5Zm48.69-3.95a60.14,60.14,0,0,1,.38-8.08c.25-1.51,1.56-2.19,4.2-2.25V44.22H358.63V46c3.13.12,4.51.75,4.76,2.25a60.14,60.14,0,0,1,.38,8.08v6.51h-.12l-16.91-18.6H337V46c4.26.25,5.26,1.19,5.26,6.2v7.89a57.83,57.83,0,0,1-.37,8c-.25,1.5-1.57,2.26-4.2,2.32v1.75h12.4V70.4c-3.13-.13-4.51-.82-4.7-2.32a58,58,0,0,1-.38-8V51.67h.06l18.41,20.8h3V56.31Zm11.62,1.06c0-7.33,3.57-11.65,7.71-11.65,5.63,0,8.7,6.7,8.7,13.4,0,8.33-3.69,11.52-7.7,11.52-5.26,0-8.71-5.64-8.71-13.28Zm8.27-13.9c-7.32,0-15.65,4.95-15.65,15.34,0,6.7,5.26,14.1,15.65,14.1,8,0,15.53-5.27,15.53-15.17,0-7.89-6-14.28-15.53-14.28Z"/><path class="cls-2" d="M413.66,50.52v1.36c2.81.19,3.1.39,3.1,4v11c0,3.54-.29,3.78-3.39,4v1.36h10.42c7.86,0,14.35-3.49,14.35-11.73a9.31,9.31,0,0,0-3-7c-2.42-2.14-6-2.91-10-2.91Zm8.2,3.69a2.93,2.93,0,0,1,.29-1.7c.2-.19.77-.29,2.33-.29,5.09,0,8,2.76,8,9,0,5.62-2.71,9.21-8,9.21-2.33,0-2.71-.78-2.71-3.54V54.21Zm22.94,6.5c0-5.67,2.76-9,6-9,4.37,0,6.74,5.19,6.74,10.38,0,6.45-2.86,8.92-6,8.92-4.07,0-6.74-4.36-6.74-10.28Zm6.4-10.76c-5.67,0-12.12,3.83-12.12,11.88,0,5.19,4.07,10.92,12.12,10.92,6.16,0,12-4.08,12-11.74,0-6.11-4.65-11.06-12-11.06Z"/><path class="cls-3" d="M123.63,34.16a200,200,0,0,0-60.2.14l-1.63.24L68.73,18l.51-.08a153.87,153.87,0,0,1,24.2-2.23,143.51,143.51,0,0,1,24.25,2.2l.5.08,7.1,16.39-1.67-.26Z"/><path class="cls-4" d="M117.54,31.82l-.73-2.89h.11c1.78.19,3.55.41,5.32.65h0l1.31,3q-3-.44-6.05-.79Zm4.25-3.07c-4.24-.57-8.51-1-12.78-1.26h-.06l-.46-2.78h.1q6.07.44,12.11,1.29h0l1.19,2.76-.13,0Zm-1.56-3.59q-2.23-.31-4.46-.56h-.05L115,21.75h.11q2,.24,4,.52h0l1.25,2.88-.14,0Zm-1.61-3.72q-5.39-.76-10.82-1.17h-.06l-.48-2.91h.1c3.41.37,6.81.86,10.2,1.42h0l1.15,2.66-.13,0Zm-12.17-4.17.49,2.94h-.1q-6.36-.45-12.75-.46H94V16.59h.08c4.11,0,8.21.25,12.3.67ZM93.24,16.6v3.15h-.08q-6,0-12,.42l-.84.06h-.1l.49-2.94h.06c4.13-.42,8.28-.67,12.44-.69Zm-13.37.78-.48,2.91h-.06q-5.5.42-11,1.17l-.13,0,1.12-2.66h0c3.45-.56,6.91-1,10.39-1.42Zm-12,4.93q2-.29,4.08-.52h.11l-.73,2.91h-.05q-2.28.25-4.55.56l-.13,0,1.24-2.95Zm-1.59,3.78q6.08-.84,12.21-1.29h.1l-.46,2.77h-.06c-4.3.29-8.59.7-12.85,1.26l-.14,0,1.16-2.75Zm-1.51,3.59q2.67-.36,5.35-.64h.11l-.75,3q-3,.34-6.05.76l1.3-3.08Zm5.53,2.23.75-3h.05c4.79-.48,9.59-.79,14.4-1h.09l-.26,2.78q-7.52.33-15,1.15Zm15.8-1.18.26-2.78h.07l3.12-.08q5.51-.1,11,0h.07l.26,2.74q-7.39-.22-14.79.08Zm15.57-.06-.26-2.75h.09c4.8.15,9.6.44,14.38.92H116l.73,2.89q-7.48-.82-15-1.07Zm12.45-9,.72,2.85h-.11q-6.79-.72-13.61-.93h-.07l-.24-2.9h.09q6.61.26,13.18,1Zm-14.1-1,.24,2.91h-.09q-6.44-.18-12.87,0l-.57,0L87,20.64h.07q6.45-.22,12.91,0Zm-13.82,0L86,23.6h-.07q-6.83.26-13.63,1h-.11l.73-2.91H73q4.08-.46,8.19-.73,2.5-.16,5-.27Zm-6.76,4.05q3.94-.27,7.89-.4,2.89-.1,5.78-.11h.08V27h-.08l-3.57,0q-5.27.1-10.53.42H79l.46-2.78Zm14.6-.51q6.77,0,13.53.43h.06l.46,2.78h-.09c-4.64-.28-9.3-.4-14-.39H94V24.22Z"/><path class="cls-3" d="M93.5,22.57h0a3,3,0,0,1,2.8,2.38l1.94,5.93c-1.86,0-7.11-.07-9,0l1.44-5.89a2.87,2.87,0,0,1,2.79-2.38Z"/><path class="cls-3" d="M88.13,30.13c.12-1.13.21-2.25.4-3.37.49-2.84,1.69-5.68,5-5.68a4.37,4.37,0,0,1,3,1.1c2,1.83,2.14,5.4,2.4,7.93l.09.87H96.54l-.07-.69c-.1-1-.15-2-.3-3-.24-1.53-.72-3.57-2.63-3.57a1.88,1.88,0,0,0-1.19.38c-1.42,1.11-1.47,4.57-1.62,6.23l-.06.7H90l-1.05,0L88,31l.09-.88Z"/><path class="cls-5" d="M90,30.2c.22-2.51.23-7.31,3.58-7.31s3.46,4.73,3.71,7.29h1c-.33-3.19-.44-8.33-4.67-8.33s-4.33,5.22-4.66,8.36l1.06,0Z"/><path class="cls-6" d="M92.75,153.17c-2-3.86-6.8-7.15-10.41-9.38-5.42-3.35-11.23-6.2-16.84-9.22a104.66,104.66,0,0,1-15.75-9.87c-4.12-3.28-8-7.42-9.6-12.55a16.66,16.66,0,0,1-.73-4.89c0-7.72,2.68-14.65,5.56-21.68,2.14-5.24,5.21-11.93,4.57-17.68S44.8,58,40.07,55l-.84-.54L55,34.05l.35-.06c25.34-4.32,51.07-4.88,76.38,0l.33.06,15.8,20.35-.84.54C142.33,58,138.23,62,137.58,67.9s2.42,12.44,4.57,17.68c2.87,7,5.56,14,5.56,21.68a16.67,16.67,0,0,1-.73,4.89c-1.57,5.13-5.48,9.27-9.6,12.55a104.66,104.66,0,0,1-15.76,9.87c-5.61,3-11.42,5.87-16.84,9.22-3.61,2.23-8.42,5.52-10.41,9.38l-.81,1.57-.81-1.57Z"/><path class="cls-7" d="M93.56,152.75C86,138,40.33,129.36,40.33,107.26s23.05-38.33.23-53.07l15-19.3q40.28-6.87,76.05,0l15,19.3c-22.81,14.73.23,31,.23,53.07S101.17,138,93.56,152.75Z"/><path class="cls-6" d="M92.92,146a47.31,47.31,0,0,0-8.18-6.11c-5.52-3.41-11.36-6.29-17.08-9.36-7.59-4.08-20.5-11.06-23.15-19.75a12,12,0,0,1-.53-3.55c0-7,2.6-13.56,5.22-20,2.52-6.16,5.56-13.1,4.8-19.9-.62-5.54-3.58-9.86-7.77-13.39l-.67-.57,12-15.2.35-.06c23.65-3.87,47.71-4.37,71.34,0l.34.06,12,15.23-.68.57c-4.18,3.53-7.15,7.85-7.77,13.39-.76,6.8,2.28,13.74,4.8,19.9,2.62,6.4,5.22,12.94,5.22,20,0,10.77-15.46,18.88-23.69,23.3-5.71,3.07-11.56,5.94-17.08,9.36A47.26,47.26,0,0,0,94.2,146l-.64.62-.64-.62Z"/><path class="cls-8" d="M93.56,145.38a48.79,48.79,0,0,1,8.34-6.24c5.52-3.41,11.41-6.31,17.12-9.38,7.72-4.16,23.21-12.22,23.21-22.51,0-6.88-2.59-13.35-5.15-19.62s-5.64-13.36-4.86-20.34c.65-5.88,3.82-10.39,8.08-14L129.06,39c-23.54-4.31-47.45-3.81-71,0L46.82,53.32c4.27,3.59,7.43,8.11,8.08,14,.78,7-2.27,14-4.86,20.34s-5.15,12.74-5.15,19.62a11.2,11.2,0,0,0,.49,3.29c2.56,8.37,15.49,15.33,22.71,19.22,5.72,3.07,11.61,6,17.13,9.38a48.86,48.86,0,0,1,8.34,6.24Z"/><path class="cls-3" d="M75.89,10.68V7.89l.84-.08q3.36-.33,6.73-.55l1-.07,3,2.82L89.29,10V7h.92q3.36,0,6.71,0h.93V9.93l1.89,0,2.94-2.79v0l1,.06q3.37.21,6.73.54l.84.08v2.83l4.84-2.2,1.08.18q3.38.57,6.73,1.24l.75.15v3.77l-.11.2-1.59,3.42L121,19.09l-.32.24-.39-.06a170.28,170.28,0,0,0-24.17-2.2,169,169,0,0,0-29.1,2.14l-.39.06L66.36,19l-2.23-1.66L62.6,14l-.1-.2V10l.75-.15Q66.61,9.24,70,8.69l1.08-.18,4.83,2.17Z"/><path class="cls-9" d="M70.13,12.44q3.35-.47,6.7-.83V8.73c2.23-.22,4.46-.4,6.7-.55v2.91q3.35-.16,6.7-.23V7.93q3.35,0,6.7,0v2.92q3.34.06,6.69.21V8.15c2.23.14,4.46.32,6.7.54v2.87q3.35.37,6.7.85V9.58q3.35.56,6.7,1.23v2.78c-.38.73-.76,1.46-1.14,2.19h0a186.42,186.42,0,0,0-29.84-2.46,180.78,180.78,0,0,0-28.14,2.39l0,0-1.1-2.14V10.81q3.35-.66,6.7-1.2v2.83Z"/><polygon class="cls-10" points="60.1 58.23 59.18 61.23 56.18 61.23 58.61 63.08 57.68 66.07 60.1 64.21 62.53 66.07 61.59 63.08 64.02 61.23 61.02 61.23 60.1 58.23 60.1 58.23"/><polygon class="cls-10" points="57.58 78.64 56.66 81.64 53.65 81.63 56.08 83.48 55.15 86.48 57.58 84.62 60 86.48 59.06 83.48 61.5 81.63 58.5 81.64 57.58 78.64 57.58 78.64"/><polygon class="cls-10" points="54.31 96.92 53.38 99.92 50.38 99.92 52.81 101.77 51.88 104.76 54.31 102.9 56.73 104.76 55.8 101.77 58.23 99.92 55.23 99.92 54.31 96.92 54.31 96.92"/><polygon class="cls-10" points="93.36 128.73 92.44 131.73 89.44 131.73 91.87 133.58 90.94 136.58 93.36 134.72 95.79 136.58 94.86 133.58 97.29 131.73 94.29 131.73 93.36 128.73 93.36 128.73"/><polygon class="cls-10" points="111.46 121.31 110.54 124.31 107.54 124.31 109.97 126.16 109.04 129.16 111.46 127.3 113.89 129.16 112.95 126.16 115.38 124.31 112.38 124.31 111.46 121.31 111.46 121.31"/><polygon class="cls-10" points="75.09 121.31 76.02 124.31 79.02 124.31 76.59 126.16 77.52 129.16 75.09 127.3 72.67 129.16 73.61 126.16 71.17 124.31 74.17 124.31 75.09 121.31 75.09 121.31"/><polygon class="cls-10" points="60.71 111.57 61.63 114.57 64.63 114.56 62.2 116.41 63.13 119.41 60.71 117.56 58.28 119.41 59.22 116.41 56.78 114.56 59.79 114.57 60.71 111.57 60.71 111.57"/><polygon class="cls-6" points="130.91 122.91 52.7 44.69 53.52 43.76 131.89 122.13 130.91 122.91 130.91 122.91"/><path class="cls-6" d="M93.56,45.77a27.4,27.4,0,0,1,17.14,5.71c23.18,18,17.4,71.91-17.14,71.91a27.52,27.52,0,0,1-17.47-5.91C53.2,99.31,59.32,45.77,93.56,45.77Z"/><path class="cls-11" d="M123,86H64.14C63.66,67,73.49,47.41,93.55,47.41h0C113.6,47.41,123.44,67,123,86Z"/><path class="cls-12" d="M64.13,84H80.68v.71H64.12v-.16h0c0-.19,0-.37,0-.55Z"/><path class="cls-12" d="M64.27,80.78,80.76,84l-.14.7-16.4-3.25c0-.24,0-.48,0-.72Z"/><path class="cls-12" d="M64.63,77.39l16.2,6.69-.27.66-16-6.62c0-.24.06-.49.1-.73Z"/><path class="cls-12" d="M65.29,73.73l15.61,10.4-.39.59L65.13,74.48l.16-.75Z"/><path class="cls-12" d="M66.37,69.66,81,84.19l-.5.5L66.13,70.43c.08-.26.15-.51.24-.77Z"/><path class="cls-12" d="M68.1,65.06,81,84.26l-.59.4L67.77,65.84l.34-.78Z"/><path class="cls-12" d="M70.86,60,81,84.33l-.66.28-10-23.88.46-.73Z"/><path class="cls-12" d="M75,54.84l6,29.57-.7.14-5.89-29.1.6-.61Z"/><path class="cls-12" d="M80.9,50.5l.13,34h-.71l-.13-33.6.71-.4Z"/><path class="cls-12" d="M88.14,47.91,81,84.57l-.7-.14,7.07-36.37.76-.16Z"/><path class="cls-12" d="M96.15,47.52,81,84.65l-.66-.27L95.41,47.47l.74.05Z"/><path class="cls-12" d="M104.18,49.52,80.93,84.71l-.59-.39,23.17-35.08.67.28Z"/><path class="cls-12" d="M111.22,54.07,80.88,84.77l-.51-.5L110.69,53.6l.53.47Z"/><path class="cls-12" d="M116.6,60.57,80.8,84.81l-.4-.59L116.22,60l.38.6Z"/><path class="cls-12" d="M120.23,68.17,80.73,84.84l-.28-.66L120,67.5l.24.67Z"/><path class="cls-12" d="M122.29,76.26,80.65,84.85l-.14-.7,41.67-8.6c0,.23.08.46.12.7Z"/><path class="cls-12" d="M123,84.53l-42.41.33v-.71l42.4-.33c0,.24,0,.48,0,.71Z"/><path class="cls-12" d="M80.68,73.69A10.85,10.85,0,0,1,91.54,84.51H69.81A10.85,10.85,0,0,1,80.68,73.69Z"/><path class="cls-13" d="M80.68,74.62a9.82,9.82,0,0,1,10,9.65H70.71a9.82,9.82,0,0,1,10-9.65Z"/><path class="cls-14" d="M95,95.74c-.95-2.17,4.91-6.29,5.82-8.07,1.77-3.44-9.73-2.71-9.41-2.95l-27.12-.15c.09,0,0,.07-.21.18,0,1.42.07,2.83.19,4.24,6.81.22,15.59-.18,15.8,1.12.06.36,1.47-.38,1.13,0-3.12,3.5.75,9.55,4.69,12.65,12.26,9.64,7.77,15.06-2.15,17.24a27.23,27.23,0,0,0,9.77,1.74h0c11.32,0,19.35-6.15,24.14-14.91-7.34-2.95-19.76-4.49-22.65-11.1Z"/><path class="cls-6" d="M64.13,83.82l28.1,0h5.06l-4.82,1.52c-2.53.79-5.75,2.2-6.51,5-.57,2.14.34,4.69,1.19,6.63,1.24,2.85,2.86,5.58,4.24,8.36,2.54,5.09,4.73,10.92,2.15,16.42-19.95,0-29.71-19.1-29.4-37.94Z"/><path class="cls-15" d="M92.23,84.58c-19.59,6.15,7.62,22.94.45,37.15-19.1-.54-28.59-18.84-28.56-37.15Z"/><path class="cls-6" d="M108.42,75.54c4.16-.44,3.57-8.89,11-9h.23A49.23,49.23,0,0,1,123,85.33H92.15l.34-1A22.85,22.85,0,0,1,99,75.55a5,5,0,0,1,3.46-1.31,25.21,25.21,0,0,1,2.51.58,15.64,15.64,0,0,0,3.42.72Z"/><path class="cls-16" d="M108.51,76.32c-1.14.12-4.17-1-6.14-1.31-2.69-.43-8,6.12-9.13,9.55H123a49.49,49.49,0,0,0-3-17.17,3.2,3.2,0,0,0-.54,0c-7,.07-6.1,8.45-10.9,9Z"/><path class="cls-6" d="M75.37,106.12c-3.22-6.57-3.21-13,3.67-16.88l2.4-1.36L80.1,90.29a4.93,4.93,0,0,0-.69,2.92c.32,3.16,4.46,6.39,6.78,8.23l1.3,1-1.63.34a24.79,24.79,0,0,0-9.34,3.6l-.75.54-.4-.82Z"/><path class="cls-10" d="M76.07,105.78C72.35,98.19,74,93,79.42,89.91c-2.48,4.44,1.06,8,6.29,12.14a25.46,25.46,0,0,0-9.64,3.73Z"/><path class="cls-6" d="M84.45,105.94H82.75a.64.64,0,0,0,0-.1v-.93a.39.39,0,0,0-.39-.39h-.93a.39.39,0,0,0-.39.39v.93a.42.42,0,0,0,0,.1H74.3v-.59H73v.59H71.5c-.38.3-.38.68,0,1.12a40.39,40.39,0,0,0,12.95,0,.69.69,0,0,0,0-1.12Z"/><path class="cls-6" d="M115,111c-6.42-3.33-15.31-4-20.28-9.3s-6-11.3-2-17.54l.23-.37,30,.35c.1,9.83-2.55,19.69-7.95,26.85Z"/><path class="cls-17" d="M93.37,84.58c-2.7,4.26-4.16,10.14,1.93,16.59,4.83,5.12,13.68,5.79,20.18,9.2,4.95-6.91,7.44-16.16,7.48-25.44l-29.6-.35Z"/><path class="cls-6" d="M123,84.72H104.6l2.29-1.43a25.44,25.44,0,0,0,5.2-4.56c1.06-1.14,2.41-2.72,4-3a3.3,3.3,0,0,1,1,0c.88.11,1.76.28,2.63.45s1.51.3,2.26.43l.36.06a52.54,52.54,0,0,1,.63,8.11Z"/><path class="cls-18" d="M122.46,77.4c-1.52-.2-3.83-.77-5.46-1-2.86-.34-4.43,4.2-9.7,7.51H123a52.2,52.2,0,0,0-.5-6.54Z"/><polygon class="cls-13" points="78.56 64.47 82.51 64.47 82.51 66.56 78.56 66.56 78.56 64.47 78.56 64.47"/><path class="cls-6" d="M80.51,60.21a1.38,1.38,0,1,1-1.38,1.37,1.38,1.38,0,0,1,1.38-1.37Z"/><path class="cls-19" d="M80.51,61a.61.61,0,1,1-.61.61.61.61,0,0,1,.61-.61Z"/><polygon class="cls-6" points="77.98 77.25 78.58 67.34 82.55 67.34 83.16 77.25 77.98 77.25 77.98 77.25"/><polygon class="cls-20" points="78.79 76.48 79.3 68.11 81.82 68.11 82.34 76.48 78.79 76.48 78.79 76.48"/><polygon class="cls-6" points="77.6 65.8 83.47 65.8 83.47 68.77 77.6 68.77 77.6 65.8 77.6 65.8"/><polygon class="cls-21" points="78.37 66.56 82.7 66.56 82.7 68 78.37 68 78.37 66.56 78.37 66.56"/><polygon class="cls-6" points="78 70.35 85.52 70.35 85.52 84.5 75.61 84.5 75.61 70.35 78 70.35 78 70.35"/><polygon class="cls-22" points="77.57 72.31 78.77 72.31 78.77 71.12 79.97 71.12 79.97 72.31 81.16 72.31 81.16 71.12 82.36 71.12 82.36 72.31 83.55 72.31 83.55 71.12 84.75 71.12 84.75 72.31 84.75 83.73 76.37 83.73 76.37 72.31 76.37 71.12 77.57 71.12 77.57 72.31 77.57 72.31"/><path class="cls-6" d="M80.52,79.8a1.26,1.26,0,0,1,1.13,1.35v2.78H79.4V81.15a1.26,1.26,0,0,1,1.13-1.35Z"/><polygon class="cls-6" points="81.6 77.49 79.52 77.49 79.52 75.45 81.6 75.45 81.6 77.49 81.6 77.49"/><polygon class="cls-6" points="75.97 73.72 85.16 73.72 85.16 74.52 75.97 74.52 75.97 73.72 75.97 73.72"/><polygon class="cls-6" points="75.97 78.19 85.16 78.19 85.16 79 75.97 79 75.97 78.19 75.97 78.19"/><polygon class="cls-6" points="80.94 64.24 80.94 66.37 80.13 66.37 80.13 64.24 80.94 64.24 80.94 64.24"/><path class="cls-6" d="M80.53,61.6c1.31,0,2.79.84,2.79,2.28v1H77.75v-1c0-1.44,1.47-2.28,2.78-2.28Z"/><path class="cls-23" d="M80.53,62.36h0c1.11,0,2,.68,2,1.52v.2h-4v-.2c0-.83.91-1.52,2-1.52Z"/><polygon class="cls-6" points="79.12 64.22 79.12 66.37 78.32 66.37 78.32 64.22 79.12 64.22 79.12 64.22"/><polygon class="cls-6" points="82.75 64.24 82.75 66.37 81.94 66.37 81.94 64.24 82.75 64.24 82.75 64.24"/><path class="cls-6" d="M95,59.1a21.07,21.07,0,0,1,7.73,1.11,16.28,16.28,0,0,1,5.65,3.56l1.21,1.14-5.68.65-.27-.3C101.22,62.49,98.1,62,94.75,61c-.59-.17-1.71-.33-1.59-1.2s1.26-.72,1.87-.73Z"/><path class="cls-10" d="M95,59.87a20.3,20.3,0,0,1,7.46,1.06,15.37,15.37,0,0,1,5.39,3.39l-3.62.41h0c-2.63-3-5.91-3.47-9.29-4.45-1.42-.41-1.36-.38.08-.41Z"/><path class="cls-6" d="M112.35,61.59a1.88,1.88,0,0,1,.89,1.42,1.49,1.49,0,0,1-.24,2,12.23,12.23,0,0,1-3.37,1.14c.56,1.78,1.49,3.51,1.43,5.43a9.56,9.56,0,0,1-.1,1.1c-.37,2.65-1.67,5-2.13,7.57-.09.51,0,1.53-.84,1.56s-.83-1-.92-1.49c-.32-1.81-.45-3.69-.66-5.52s-.54-5-1.5-6.5a10.22,10.22,0,0,0-2-.95h0a6.13,6.13,0,0,0-1.6-.32c-.5.13-1.09.19-1.58.33l-1.18.33.21-1.2a7.27,7.27,0,0,1,.54-1.65,2.43,2.43,0,0,1,2.44-1.66l3.57-.74h.11a5,5,0,0,0,1.89-.33,19.54,19.54,0,0,0,1.91-.82,7.59,7.59,0,0,1,1.61-.65,1.52,1.52,0,0,1,1.56.93Z"/><path class="cls-10" d="M105.34,63.23c2.11.15,4.59-1.61,5.6-1.81.34-.07,1,.51.66.8a16.47,16.47,0,0,1-1.67.79,11.83,11.83,0,0,1,1.86-.81c.51.08.83.92.6,1.1,0,0-1.63.45-2.12.67a10.29,10.29,0,0,1,2.12-.67c.27,0,.58.85.2,1.1-1.15.75-2.67.78-3.88,1.32.46,1.85,1.66,4,1.6,5.87-.1,3-1.72,5.77-2.21,8.56-.2,1.09,0,1.34-.23.07-.65-3.64-.68-10.07-2.36-12.47a11,11,0,0,0-2.31-1.1,7,7,0,0,0-2-.38c-.46.13-1.34.31-1.8.44.15-.87.7-2.94,2.32-2.74l3.58-.74Z"/><path class="cls-6" d="M101.6,65.38A.36.36,0,0,0,102,65a.37.37,0,0,0-.33-.41.37.37,0,0,0-.38.35.37.37,0,0,0,.33.4Z"/><polygon class="cls-6" points="108.21 70.53 109.79 75.96 109.31 76.47 107.61 70.71 108.21 70.53 108.21 70.53"/><polygon class="cls-6" points="108.92 69.37 110.55 72.8 110.24 73.53 108.36 69.63 108.92 69.37 108.92 69.37"/><polygon class="cls-6" points="112.37 62.18 109.78 63.42 109.51 62.86 111.74 61.81 112.37 62.18 112.37 62.18"/><polygon class="cls-6" points="112.93 63.7 110.14 64.36 110 63.76 112.65 63.12 112.93 63.7 112.93 63.7"/><path class="cls-6" d="M104.28,99.57a12.09,12.09,0,0,1,1.19-3.23L104,97.77l-.44-.44,1.15-1.14a8.11,8.11,0,0,0-2.2,2l0,.16v.2l.27,2.73,1.35-1.42.1-.11,0-.13ZM108,97.63c0,1.21.07,2.41.11,3.63l.56-1.31v-.08l0,0c-.21-.79-.39-1.51-.64-2.2Zm.16,5.08c.11,3.44.23,6.89.31,10.33v.64h-3.56l.37-11.1-.49-1.14,0,1.78-.62,0,0-1.7-.6,1.6-.58-.21.64-1.7-1.2,1.26-.45-.42.21-.22L102,100l-.47,1.79-.6-.16.46-1.74-1,1.46L99.9,101,101,99.38l-1.56,1-.34-.52,1.47-.94-.49.1-.18.32-.36-.21-.66.14-.13-.61.18,0-.37-.35,1.51-1.57-1.85,1.08-.31-.54,2-1.18-2.26.51L97.55,96l1.86-.42-1.91-.07,0-.62,2.13.08-2-.67.19-.59,2,.67-1.07-.73-.16,0,0-.15L98,93.11l.35-.52.53.36,1.36-.21-2-.22.07-.62,2.24.24-2-.88.25-.57,2,.88-1.67-1.45.41-.47,1.66,1.44-1.19-1.91.45-.28.12-.3.64.26-.07-.25.26-.07-.51-.38.37-.5,1.94,1.44-1.43-1.87.49-.38,1.56,2L103,86.52l.58-.21.72,2-.19-2.13.62-.05.21,2.34.46-2.33.61.12-.46,2.31.69-1.33-.23-.44.55-.29,0,0,.07-.13.56.29-.27.53.73,1.41-.46-2.31.61-.12.46,2.33.21-2.35.62.06L109,88.41l.72-2,.59.21L109.4,89,111,87l.5.38L110,89.21,112,87.77l.37.5-.4.3.22.06-.09.33.6-.24.08.2,0,0,.53.33L112.1,91.1l1.67-1.44.4.47-1.67,1.45,2-.88.25.57-2,.88L115,91.9l.07.62-2,.22,1.51.24.57-.38.35.52-.77.51h0l-1,.7,2-.67.19.59-2,.67,2.13-.08,0,.62-1.91.07L116,96l-.13.61L113.61,96l2,1.18-.31.54-1.84-1.08,1.5,1.57-.37.35.18,0-.13.61-.66-.14-.36.21-.18-.32-.49-.1,1.47.94-.34.52-1.56-1,1.13,1.62-.51.36-1-1.46.46,1.74-.6.16-.48-1.79-.18,1.84.21.22-.45.42-1.2-1.26.64,1.7-.58.21-.6-1.6,0,1.7-.62,0,0-1.78-.55,1.28Zm-2.82-1.6.11-3.34a15.32,15.32,0,0,0-.57,1.85c0,.06,0,.13-.06.19v.13l.5,1.17Zm5.23-8a12.6,12.6,0,0,0-1.75.86l2-.34.1.61-1.68.29a8.14,8.14,0,0,1,2.35.4l.08,0,.09,0,2.09-1.42L111,93l-.23,0-.16.08Zm-2.81.84a11.26,11.26,0,0,1,2.65-1.44l.09,0v-.1l.61-2.32-2.35,1-.13.06-.1.13a9.17,9.17,0,0,0-1,2.09l1.71-2,.47.41-1.95,2.24Zm3.24,4.2A7.41,7.41,0,0,0,108.58,96l1.3,1.35-.45.43-1.16-1.2a15.08,15.08,0,0,1,1,2.88l.06.23.15.1,1.35,1.42.27-2.73,0-.21,0-.19Zm-3.94-5.4a9.82,9.82,0,0,1,.94-1.87l0-.07v-.09l-1.41-2.75-1.37,2.66,0,.16a10,10,0,0,1,1.17,2.45V90.45h.62v2.26Zm4.29,2.77a7.33,7.33,0,0,0-2-.36l1.49.49-.19.59-1.23-.4a8.15,8.15,0,0,1,2.3,2.19l0,0h0l1.33.28-1.47-2.62-.08-.13-.14-.07Zm0-6.24.08-.3-.81.6.73-.3Zm.52.46-.27,1.05.78-1.26-.51.21Zm-7.12,1.35-.08-.12-.15-.07-2.31-.94.63,2.4.11.15a10.47,10.47,0,0,1,2.92,1.67h0l-2.24-2.3.45-.43,1.69,1.75a9.33,9.33,0,0,0-1-2.1Zm-2,2-.16,0-.17,0-2.71.43,2.13,1.45.09,0H102a8.71,8.71,0,0,1,2.32-.41l-1.68-.29.1-.61,1.74.3L102.7,93Zm1.48,2.77-1.27.43-.2-.59,1.56-.53a8.34,8.34,0,0,0-2.08.37l-.12.07-.09.13-1.48,2.62,1.33-.28.05-.06.07-.07h0a8.83,8.83,0,0,1,2.22-2.08Zm-3.82,1.5-1.22,1.28.57-.12.66-1.16Zm1.12-7.67-.54-.22.84,1.35-.3-1.12Zm.52-.46.69.29-.76-.57.07.28Zm11.86,9.3.57.12-1.22-1.28.65,1.16Z"/><path class="cls-6" d="M106.19,95l-.6,18h2.28c-.12-6.11-.4-11.93-.52-18-.45-.61-.81-.47-1.16,0Z"/><path class="cls-24" d="M106.19,95l0,.87,1.22.92,0-1L106.23,95l0,.05Zm-.57,17,0,.95.1.08H107l-1.36-1Zm.06-1.9,0,.95,2.21,1.66,0-1-2.15-1.62Zm.06-1.9,0,.95,2.1,1.58,0-1-2-1.54Zm.06-1.9,0,.95,2,1.49,0-1-1.92-1.45Zm.07-1.9,0,1,1.86,1.39,0-1-1.79-1.35Zm.06-1.9,0,.95,1.72,1.3,0-1-1.66-1.25Zm.06-1.9,0,1,1.59,1.2,0-1L106,100.64Zm.06-1.9,0,.95,1.47,1.11,0-1-1.4-1.06Zm.06-1.9,0,.95,1.34,1,0-1-1.28-1Z"/><path class="cls-25" d="M66.92,18.29l-2.23-1.66a173.7,173.7,0,0,1,57.69.06l-1.89,1.65a164.1,164.1,0,0,0-53.57-.06Z"/><path class="cls-5" d="M113,10.93l3.08-1.36h0v1.75l-3.08-.4ZM71.06,9.57v1.81L74.23,11l-3.17-1.4ZM86.22,10,84.45,8.34v1.78L86.22,10Zm14.72,0,1.74-1.67v1.74L100.94,10Z"/><path class="cls-3" d="M80,29.29c-.87.08-1.74.1-2.61.17L75,29.66l.21-2.32c.17-1.84.47-3.67.64-5.52l0-.49.27-.41a3.75,3.75,0,0,1,4-1.79A3.21,3.21,0,0,1,82.29,21l.21.49-.07.53c-.23,1.85-.47,3.7-.71,5.55l-.19,1.56L80,29.29Z"/><path class="cls-5" d="M79.88,28.32c-.86.08-1.73.1-2.6.17l-1.16.1.11-1.16c.16-1.85.47-3.67.64-5.52l0-.25.13-.2a2.78,2.78,0,0,1,2.92-1.38,2.25,2.25,0,0,1,1.46,1.33l.1.24,0,.27c-.23,1.85-.47,3.7-.71,5.55l-.1.77-.78.08Z"/><path class="cls-3" d="M79.78,27.34c.25-2,.45-3.52.7-5.55-.51-1.18-1.85-1-2.65.2-.19,2.06-.45,3.46-.64,5.52,1-.09,1.78-.09,2.58-.17Z"/><path class="cls-3" d="M106.64,29.29c.87.08,1.74.1,2.61.17l2.33.19-.21-2.32c-.17-1.84-.47-3.67-.64-5.52l0-.49-.27-.41a3.75,3.75,0,0,0-4-1.79A3.2,3.2,0,0,0,104.33,21l-.21.49.06.53c.23,1.85.47,3.7.71,5.55l.2,1.56,1.56.15Z"/><path class="cls-5" d="M106.74,28.32c.86.08,1.73.1,2.59.17l1.16.1-.1-1.16c-.17-1.85-.47-3.67-.64-5.52l0-.25-.13-.2a2.78,2.78,0,0,0-2.91-1.38,2.24,2.24,0,0,0-1.46,1.33l-.11.24,0,.27c.23,1.85.47,3.7.71,5.55l.1.77.78.08Z"/><path class="cls-3" d="M106.83,27.34c-.26-2-.46-3.52-.71-5.55.51-1.18,1.85-1,2.65.2.19,2.06.45,3.46.64,5.52-1-.09-1.78-.09-2.58-.17Z"/></svg>