<?xml version="1.0" encoding="utf-8"?>
<!-- Generator: Adobe Illustrator 16.0.0, SVG Export Plug-In . SVG Version: 6.00 Build 0)  -->
<!DOCTYPE svg PUBLIC "-//W3C//DTD SVG 1.1//EN" "http://www.w3.org/Graphics/SVG/1.1/DTD/svg11.dtd">
<svg version="1.1" id="Layer_1" xmlns="http://www.w3.org/2000/svg" xmlns:xlink="http://www.w3.org/1999/xlink" x="0px" y="0px"
	 width="246.393px" height="362.417px" viewBox="0 0 246.393 362.417" enable-background="new 0 0 246.393 362.417"
	 xml:space="preserve">
<g>
	<path fill="#E5F3F0" d="M114,169.116c0,7.116-5.769,12.884-12.885,12.884h-88.23C5.769,182,0,176.231,0,169.116V12.884
		C0,5.769,5.769,0,12.885,0h88.23C108.231,0,114,5.769,114,12.884V169.116z"/>
	<path fill="#E5F3F0" d="M164.403,340.242L161.941,281h43.865l4.662-49h21.338l-22.096-59.698c0,0,5.307-95.534-88.335-95.534
		c-71.653,0-97.812,83.598-73.549,124.164l19.715,47.296l-13.648,81.839C53.893,330.066,113.029,368.667,164.403,340.242z"/>
	<path fill="none" stroke="#3DA490" stroke-width="5" stroke-miterlimit="10" d="M175.403,349.492l-2.462-58.992h43.865l4.662-49
		h21.338l-22.096-59.948c0,0,5.307-95.659-88.335-95.659c-71.653,0-97.812,83.535-73.549,124.101l19.715,47.265l-13.648,81.948
		C64.893,339.207,124.029,377.917,175.403,349.492z"/>
	<path fill="none" stroke="#3DA490" stroke-width="5" stroke-miterlimit="10" d="M124.5,179.616c0,7.116-5.769,12.884-12.884,12.884
		H23.384c-7.116,0-12.884-5.769-12.884-12.884V23.384c0-7.116,5.769-12.884,12.884-12.884h88.231
		c7.116,0,12.884,5.769,12.884,12.884V179.616z"/>
	<text transform="matrix(1 0 0 1 62.8359 157.5933)" fill="#FF931E" font-family="'DINBlackAlternate'" font-size="23.924">a</text>
	<text transform="matrix(1 0 0 1 103.1528 149.5039)" fill="#FF931E" font-family="'DINBlackAlternate'" font-size="23.924">4</text>
	<text transform="matrix(1 0 0 1 75.4717 182.3745)" fill="#FF931E" font-family="'DINBlackAlternate'" font-size="23.924">!</text>
	<text transform="matrix(1 0 0 1 97.7246 120.5391)" fill="#FF931E" font-family="'DINBlackAlternate'" font-size="23.924">w</text>
	<text transform="matrix(1 0 0 1 77 146.0059)" fill="#FF931E" font-family="'DINBlackAlternate'" font-size="37.4316">?</text>
	<text transform="matrix(1 0 0 1 90.8159 172.6445)" fill="#FF931E" font-family="'DINBlackAlternate'" font-size="23.924">$</text>
</g>
</svg>
