<?xml version="1.0" encoding="utf-8"?>
<!-- Generator: Adobe Illustrator 16.0.0, SVG Export Plug-In . SVG Version: 6.00 Build 0)  -->
<!DOCTYPE svg PUBLIC "-//W3C//DTD SVG 1.1//EN" "http://www.w3.org/Graphics/SVG/1.1/DTD/svg11.dtd">
<svg version="1.1" id="Camada_1" xmlns="http://www.w3.org/2000/svg" xmlns:xlink="http://www.w3.org/1999/xlink" x="0px" y="0px"
	 width="125.992px" height="56.254px" viewBox="0 0 125.992 56.254" enable-background="new 0 0 125.992 56.254"
	 xml:space="preserve">
<g>
	<g>
		<polygon fill="#CB613F" points="72.866,56.254 37.949,22.946 5.506,53.724 0,47.92 37.963,11.904 73.067,45.39 108.03,14.43 
			113.334,20.419 		"/>
	</g>
	<g>
		<g>
			<polygon fill="#CB613F" points="116.5,32.403 125.992,4.037 96.678,9.997 			"/>
		</g>
	</g>
	<g>
		<path fill="#CB613F" d="M67.107,22.62c1.123,1.306,2.262,2.282,3.417,2.928c1.155,0.646,2.34,0.97,3.555,0.97
			c0.979,0,1.792-0.284,2.438-0.852c0.646-0.568,0.97-1.276,0.97-2.125c0-0.927-0.271-1.642-0.813-2.145
			c-0.542-0.502-1.779-1.015-3.711-1.537c-2.938-0.81-4.997-1.818-6.179-3.026c-1.182-1.208-1.772-2.862-1.772-4.965
			c0-2.585,0.813-4.681,2.438-6.287s3.9-2.559,6.825-2.859V0h2.526l0.02,2.683c1.136,0.118,2.252,0.382,3.349,0.793
			c1.097,0.412,2.18,0.977,3.251,1.694l-2.487,5.582c-0.875-0.744-1.776-1.306-2.703-1.684C77.304,8.689,76.377,8.5,75.45,8.5
			c-0.94,0-1.697,0.219-2.271,0.656c-0.575,0.438-0.862,1.009-0.862,1.714c0,0.718,0.254,1.292,0.764,1.723
			c0.509,0.431,1.508,0.842,2.997,1.234l0.254,0.079c3.212,0.861,5.32,1.815,6.326,2.859c0.679,0.705,1.198,1.547,1.557,2.526
			c0.359,0.979,0.539,2.063,0.539,3.251c0,2.716-0.823,4.968-2.468,6.756c-1.645,1.789-3.845,2.827-6.6,3.114v4.759h-2.526v-4.681
			c-1.854-0.026-3.558-0.372-5.112-1.038c-1.554-0.666-3.049-1.697-4.485-3.094L67.107,22.62z"/>
	</g>
</g>
</svg>
