<?xml version="1.0" encoding="utf-8"?>
<!-- Generator: Adobe Illustrator 16.0.0, SVG Export Plug-In . SVG Version: 6.00 Build 0)  -->
<!DOCTYPE svg PUBLIC "-//W3C//DTD SVG 1.1//EN" "http://www.w3.org/Graphics/SVG/1.1/DTD/svg11.dtd">
<svg version="1.1" id="Camada_1" xmlns="http://www.w3.org/2000/svg" xmlns:xlink="http://www.w3.org/1999/xlink" x="0px" y="0px"
	 width="120px" height="120px" viewBox="2.996 -31.873 120 120" enable-background="new 2.996 -31.873 120 120"
	 xml:space="preserve">
<g>
	<g>
		<polygon fill="#CB613F" points="72.396,54.916 39.141,23.192 8.24,52.507 2.996,46.979 39.153,12.676 72.588,44.569 
			105.888,15.082 110.939,20.786 		"/>
	</g>
	<g>
		<g>
			<polygon fill="#CB613F" points="113.955,32.199 122.996,5.183 95.076,10.859 			"/>
		</g>
	</g>
	<g>
		<path fill="#CB613F" d="M66.912,22.882c1.069,1.244,2.154,2.173,3.253,2.789c1.102,0.615,2.229,0.924,3.387,0.924
			c0.934,0,1.707-0.271,2.322-0.812c0.615-0.541,0.923-1.215,0.923-2.024c0-0.883-0.258-1.564-0.773-2.043
			c-0.517-0.478-1.694-0.967-3.534-1.464c-2.798-0.771-4.76-1.731-5.885-2.882c-1.127-1.15-1.688-2.726-1.688-4.729
			c0-2.462,0.774-4.458,2.322-5.988s3.714-2.438,6.501-2.723V1.338h2.405l0.019,2.555c1.082,0.112,2.146,0.364,3.19,0.755
			c1.045,0.392,2.075,0.931,3.096,1.613l-2.369,5.316c-0.833-0.708-1.69-1.243-2.574-1.604c-0.882-0.361-1.766-0.541-2.648-0.541
			c-0.896,0-1.616,0.208-2.162,0.625c-0.549,0.417-0.822,0.961-0.822,1.632c0,0.684,0.242,1.23,0.729,1.641
			c0.484,0.411,1.436,0.802,2.854,1.176l0.242,0.075c3.059,0.82,5.066,1.729,6.024,2.723c0.646,0.671,1.141,1.473,1.483,2.406
			c0.342,0.932,0.513,1.965,0.513,3.096c0,2.586-0.783,4.731-2.35,6.435c-1.567,1.704-3.662,2.692-6.287,2.966v4.533h-2.405v-4.458
			c-1.766-0.025-3.39-0.354-4.869-0.989s-2.904-1.616-4.272-2.947L66.912,22.882z"/>
	</g>
</g>
</svg>
