<?xml version="1.0" encoding="utf-8"?>
<!-- Generator: Adobe Illustrator 16.0.0, SVG Export Plug-In . SVG Version: 6.00 Build 0)  -->
<!DOCTYPE svg PUBLIC "-//W3C//DTD SVG 1.1//EN" "http://www.w3.org/Graphics/SVG/1.1/DTD/svg11.dtd">
<svg version="1.1" id="Camada_1" xmlns="http://www.w3.org/2000/svg" xmlns:xlink="http://www.w3.org/1999/xlink" x="0px" y="0px"
	 width="56px" height="71px" viewBox="0 0 56 71" enable-background="new 0 0 56 71" xml:space="preserve">
<path fill="#CB613F" d="M11.372,5H56V0.349C55.373,0.127,54.702,0,54,0H6C2.687,0,0,2.687,0,6v59c0,3.313,2.687,6,6,6h48
	c0.702,0,1.373-0.127,2-0.349V14H11.372C9.51,14,8,11.888,8,9.552V9.23C8,6.895,9.51,5,11.372,5z M43.06,37.3l-8.878,4.886
	l10.187,10.462l-3.854,3.991L30.052,46.178l-4.816,8.809l-8.604-26.29L43.06,37.3z"/>
</svg>
