<?xml version="1.0" encoding="utf-8"?>
<!-- Generator: Adobe Illustrator 16.0.0, SVG Export Plug-In . SVG Version: 6.00 Build 0)  -->
<!DOCTYPE svg PUBLIC "-//W3C//DTD SVG 1.1//EN" "http://www.w3.org/Graphics/SVG/1.1/DTD/svg11.dtd">
<svg version="1.1" id="Camada_1" xmlns="http://www.w3.org/2000/svg" xmlns:xlink="http://www.w3.org/1999/xlink" x="0px" y="0px"
	 width="120px" height="120px" viewBox="-32 -24.5 120 120" enable-background="new -32 -24.5 120 120" xml:space="preserve">
<g>
	<path fill="#CB613F" d="M-0.104-16.049h75.428v-7.861c-1.06-0.375-2.193-0.59-3.381-0.59H-9.183c-5.6,0-10.141,4.542-10.141,10.141
		v99.719c0,5.599,4.541,10.141,10.141,10.141h81.126c1.188,0,2.321-0.215,3.381-0.591V-0.838H-0.104
		c-3.147,0-5.699-3.57-5.699-7.518V-8.9C-5.803-12.847-3.251-16.049-0.104-16.049z M53.454,38.542L38.448,46.8l17.218,17.684
		l-6.513,6.744L31.468,53.547l-8.14,14.888L8.786,24.002L53.454,38.542z"/>
</g>
</svg>
