<?xml version="1.0" encoding="utf-8"?>
<!-- Generator: Adobe Illustrator 16.0.0, SVG Export Plug-In . SVG Version: 6.00 Build 0)  -->
<!DOCTYPE svg PUBLIC "-//W3C//DTD SVG 1.1//EN" "http://www.w3.org/Graphics/SVG/1.1/DTD/svg11.dtd">
<svg version="1.1" id="Camada_1" xmlns="http://www.w3.org/2000/svg" xmlns:xlink="http://www.w3.org/1999/xlink" x="0px" y="0px"
	 width="722.146px" height="215.867px" viewBox="0 0 722.146 215.867" enable-background="new 0 0 722.146 215.867"
	 xml:space="preserve">
<g>
	<g>
		<g>
			<path fill="#FFFFFF" d="M283.304,157.404L260.88,94.387c-0.477-1.26-0.952-3.292-0.952-4.867c0-4.545,3.634-8.776,9.321-8.776
				c4.732,0,7.896,3.14,9.317,7.525l16.107,50.168l16.267-50.168c1.422-4.386,4.896-7.525,9.792-7.525h1.104
				c4.896,0,8.37,3.14,9.795,7.525l16.423,50.168l16.27-50.326c1.262-4.069,4.266-7.368,9.316-7.368c5.21,0,9,4.074,9,8.776
				c0,1.412-0.473,3.292-0.79,4.232l-22.743,63.652c-2.052,5.8-5.999,8.466-10.575,8.466h-0.639c-4.739,0-8.686-2.666-10.421-8.154
				l-16.267-49.224l-16.423,49.224c-1.739,5.488-5.685,8.154-10.27,8.154h-0.631C289.15,165.87,285.202,163.204,283.304,157.404"/>
			<path fill="#FFFFFF" d="M405.972,49.951c-5.4,0-9.547,3.631-9.547,9.317v0.945c0,5.683,4.146,9.479,9.547,9.479
				c5.397,0,9.553-3.796,9.553-9.479v-0.945C415.524,53.582,411.369,49.951,405.972,49.951"/>
			<path fill="#FFFFFF" d="M405.895,80.745c-5.372,0-9.474,4.265-9.474,9.635v66.011c0,5.368,4.259,9.479,9.474,9.479
				c5.367,0,9.628-4.111,9.628-9.479V90.38C415.522,85.01,411.262,80.745,405.895,80.745"/>
		</g>
		<g>
			<path fill="#FFFFFF" d="M439.781,53.925c0-2.226,1.589-3.974,3.813-3.974c2.226,0,3.972,1.748,3.972,3.974V161.91
				c0,2.384-1.588,3.973-3.813,3.973c-2.226,0-3.973-1.589-3.973-3.973V53.925z"/>
			<path fill="#FFFFFF" d="M475.217,54.719c0-2.701,2.064-4.768,4.768-4.768c2.701,0,4.925,2.066,4.925,4.768v2.701
				c0,2.701-2.224,4.767-4.925,4.767c-2.702,0-4.768-2.065-4.768-4.767V54.719z M476.171,84.475c0-2.225,1.589-3.973,3.813-3.973
				s3.974,1.59,3.974,3.973v77.436c0,2.384-1.592,3.973-3.813,3.973c-2.225,0-3.973-1.589-3.973-3.973V84.475z"/>
			<path fill="#FFFFFF" d="M539.889,165.87h-0.318c-2.225,0-3.495-1.317-4.448-3.46l-32.573-75.319
				c-0.318-0.823-0.637-1.646-0.637-2.469c0-2.308,1.747-4.12,4.132-4.12c2.384,0,3.337,1.481,4.132,3.296l29.556,72.329
				l30.031-72.659c0.636-1.647,1.747-2.966,3.813-2.966c2.227,0,3.975,1.813,3.975,4.118c0,0.825-0.16,1.319-0.479,2.143
				l-32.73,75.647C543.384,164.553,542.114,165.87,539.889,165.87z"/>
			<path fill="#FFFFFF" d="M594.392,84.59c0-2.289,1.59-4.088,3.814-4.088c2.224,0,3.973,1.636,3.973,4.088v20.931
				c6.99-16.188,21.134-25.019,32.572-25.019c2.385,0,4.133,1.963,4.133,4.415c0,2.29-1.589,4.251-4.133,4.415
				c-17.159,1.635-32.572,14.879-32.572,41.693v30.738c0,2.291-1.589,4.088-3.813,4.088c-2.226,0-3.974-1.636-3.974-4.088V84.59
				L594.392,84.59z"/>
			<path fill="#FFFFFF" d="M638.884,124.15v-0.323c0-23.203,17.64-43.325,41.791-43.325c23.994,0,41.473,19.797,41.473,43.002v0.323
				c0,23.204-17.638,43.325-41.789,43.325C656.363,167.152,638.884,147.357,638.884,124.15z M713.726,124.15v-0.323
				c0-19.959-14.619-35.861-33.367-35.861c-19.227,0-33.053,16.065-33.053,35.538v0.323c0,19.96,14.619,35.862,33.369,35.862
				C699.901,159.689,713.726,143.626,713.726,124.15z"/>
		</g>
	</g>
	<path fill="#79BAE0" d="M7.938,115.871h79.379c4.384,0,7.938-3.555,7.938-7.938c0-4.382-3.556-7.938-7.938-7.938l-71.438,0.001
		V15.871h84.14v71.428c0,4.385,3.557,7.937,7.938,7.937s7.936-3.552,7.936-7.937V7.937c0-4.382-3.553-7.937-7.936-7.937H7.938
		C3.555,0,0,3.555,0,7.937v99.997C0,112.316,3.555,115.871,7.938,115.871"/>
	<path fill="#E6B555" d="M207.973,99.995l-79.379,0.001c-4.384,0-7.938,3.555-7.938,7.936c0,4.382,3.556,7.938,7.938,7.938h71.438
		v84.126h-84.142v-71.43c0-4.383-3.555-7.936-7.938-7.936c-4.384,0-7.938,3.553-7.938,7.936v79.363c0,4.383,3.554,7.938,7.938,7.938
		h100.019c4.383,0,7.938-3.557,7.938-7.938v-99.999C215.91,103.551,212.355,99.995,207.973,99.995"/>
	<path fill="#CB623F" d="M165.903,57.935c0-4.382-3.556-7.936-7.938-7.936"/>
	<path fill="#CB623F" d="M65.884,149.995V78.567c0-4.381-3.552-7.931-7.938-7.931c-4.384,0-7.937,3.55-7.937,7.931v79.365
		c0,4.381,3.553,7.937,7.937,7.936"/>
	<path fill="#CB623F" d="M157.966,49.999H78.584c-4.382,0-7.937,3.554-7.937,7.936s3.555,7.937,7.937,7.937h71.441"/>
	<path fill="#CB623F" d="M150.026,65.871V137.3c0,4.382,3.552,7.931,7.939,7.931c4.382,0,7.936-3.549,7.936-7.931V57.935
		c0-4.382-3.554-7.936-7.936-7.936c0,0-5.506,0.026-7.901,0.665C142.485,52.687,132.523,58.129,150.026,65.871z"/>
	<path fill="#CB623F" d="M57.945,165.867h79.381c4.383,0,7.936-3.553,7.936-7.936s-3.553-7.938-7.936-7.938H65.884
		C65.884,149.995,55.145,156.264,57.945,165.867z"/>
	<g>
		<g>
			<defs>
				<rect id="SVGID_1_" x="150.027" y="115.921" width="15.873" height="4.866"/>
			</defs>
			<clipPath id="SVGID_2_">
				<use xlink:href="#SVGID_1_"  overflow="visible"/>
			</clipPath>
			
				<linearGradient id="SVGID_3_" gradientUnits="userSpaceOnUse" x1="669.8176" y1="76.9722" x2="671.0198" y2="76.9722" gradientTransform="matrix(0 -4.0483 -4.0483 0 469.5703 2832.4185)">
				<stop  offset="0" style="stop-color:#CB623F"/>
				<stop  offset="0.4151" style="stop-color:#C75A38"/>
				<stop  offset="0.995" style="stop-color:#B84428"/>
			</linearGradient>
			<rect x="150.027" y="115.922" clip-path="url(#SVGID_2_)" fill="url(#SVGID_3_)" width="15.873" height="4.865"/>
		</g>
	</g>
	<g>
		<g>
			<defs>
				<rect id="SVGID_4_" x="50.009" y="115.871" width="15.873" height="4.865"/>
			</defs>
			<clipPath id="SVGID_5_">
				<use xlink:href="#SVGID_4_"  overflow="visible"/>
			</clipPath>
			
				<linearGradient id="SVGID_6_" gradientUnits="userSpaceOnUse" x1="669.8303" y1="101.6782" x2="671.0325" y2="101.6782" gradientTransform="matrix(0 -4.0483 -4.0483 0 469.5703 2832.4185)">
				<stop  offset="0" style="stop-color:#CB623F"/>
				<stop  offset="0.4151" style="stop-color:#C75A38"/>
				<stop  offset="0.995" style="stop-color:#B84428"/>
			</linearGradient>
			<rect x="50.009" y="115.871" clip-path="url(#SVGID_5_)" fill="url(#SVGID_6_)" width="15.873" height="4.865"/>
		</g>
	</g>
	<g>
		<g>
			<defs>
				<polygon id="SVGID_7_" points="115.893,70.751 100.016,70.738 100.016,65.871 115.893,65.884 				"/>
			</defs>
			<clipPath id="SVGID_8_">
				<use xlink:href="#SVGID_7_"  overflow="visible"/>
			</clipPath>
			
				<linearGradient id="SVGID_9_" gradientUnits="userSpaceOnUse" x1="670.6711" y1="75.9727" x2="671.8733" y2="75.9727" gradientTransform="matrix(5.000000e-004 -4.0472 -4.05 -0.0032 415.3074 2785.3262)">
				<stop  offset="0" style="stop-color:#79BAE0"/>
				<stop  offset="0.208" style="stop-color:#77B7DF"/>
				<stop  offset="0.5112" style="stop-color:#6EACD8"/>
				<stop  offset="0.871" style="stop-color:#6199CB"/>
				<stop  offset="1" style="stop-color:#5B91C6"/>
			</linearGradient>
			<polygon clip-path="url(#SVGID_8_)" fill="url(#SVGID_9_)" points="115.893,70.751 115.893,65.884 100.016,65.871 
				100.016,70.738 			"/>
		</g>
	</g>
	<g>
		<g>
			<defs>
				<rect id="SVGID_10_" x="100.018" y="165.867" width="15.874" height="4.867"/>
			</defs>
			<clipPath id="SVGID_11_">
				<use xlink:href="#SVGID_10_"  overflow="visible"/>
			</clipPath>
			
				<linearGradient id="SVGID_12_" gradientUnits="userSpaceOnUse" x1="695.3293" y1="75.9688" x2="696.5315" y2="75.9688" gradientTransform="matrix(0 -4.0493 -4.0493 0 415.5726 2986.3311)">
				<stop  offset="0" style="stop-color:#E6B555"/>
				<stop  offset="0.2245" style="stop-color:#E2B353"/>
				<stop  offset="0.5519" style="stop-color:#D5A84E"/>
				<stop  offset="0.9404" style="stop-color:#BD9545"/>
				<stop  offset="1" style="stop-color:#B99143"/>
			</linearGradient>
			<rect x="100.018" y="165.867" clip-path="url(#SVGID_11_)" fill="url(#SVGID_12_)" width="15.874" height="4.867"/>
		</g>
	</g>
	<rect x="46.141" y="99.999" fill="#79BAE0" width="26.719" height="15.872"/>
	<rect x="146.422" y="100.014" fill="#E6B555" width="26.718" height="15.876"/>
</g>
</svg>
