<?xml version="1.0" encoding="utf-8"?>
<!-- Generator: Adobe Illustrator 21.1.0, SVG Export Plug-In . SVG Version: 6.00 Build 0)  -->
<svg version="1.1" id="Camada_1" xmlns="http://www.w3.org/2000/svg" xmlns:xlink="http://www.w3.org/1999/xlink" x="0px" y="0px"
	 viewBox="0 0 110.6 147.9" style="enable-background:new 0 0 110.6 147.9;" xml:space="preserve">
<style type="text/css">
	.st0{fill:#E6B653;}
	.st1{fill:#EBC77B;}
	.st2{fill:#1C303B;}
</style>
<path class="st0" d="M77.8,111c0-0.3,0-0.6,0-0.9c0-12.5-10.1-22.6-22.6-22.6S32.7,97.6,32.7,110c0,0.3,0,0.6,0,0.9
	c0.1,2.5,0.6,5,1.5,7.2c5,14.7,21.1,29.8,21.1,29.8s16.7-15.5,21.4-30.6C77.4,115.3,77.8,113.2,77.8,111z"/>
<circle class="st1" cx="55.3" cy="110" r="18.1"/>
<g>
	<path class="st2" d="M44.4,100.6c1.3-0.3,3-0.4,4.8-0.4c2.6,0,4.4,0.5,5.6,1.6c1,0.9,1.5,2.2,1.5,3.6c0,2.5-1.6,4.2-3.6,4.9v0.1
		c1.5,0.5,2.4,1.9,2.8,3.9c0.6,2.7,1.1,4.5,1.5,5.3h-2.6c-0.3-0.5-0.7-2.2-1.3-4.6c-0.6-2.6-1.6-3.6-3.8-3.7h-2.3v8.3h-2.5V100.6z
		 M46.9,109.4h2.5c2.6,0,4.3-1.5,4.3-3.6c0-2.5-1.8-3.6-4.4-3.6c-1.2,0-2.1,0.1-2.5,0.2V109.4z"/>
	<path class="st2" d="M63.7,100.4h2.5v12.9c0,5.1-2.5,6.7-5.8,6.7c-0.9,0-2-0.2-2.6-0.5l0.4-2c0.5,0.2,1.3,0.4,2.1,0.4
		c2.2,0,3.5-1,3.5-4.8V100.4z"/>
</g>
</svg>
