<?xml version="1.0" encoding="utf-8"?>
<!-- Generator: Adobe Illustrator 16.0.0, SVG Export Plug-In . SVG Version: 6.00 Build 0)  -->
<!DOCTYPE svg PUBLIC "-//W3C//DTD SVG 1.1//EN" "http://www.w3.org/Graphics/SVG/1.1/DTD/svg11.dtd">
<svg version="1.1" id="Camada_1" xmlns="http://www.w3.org/2000/svg" xmlns:xlink="http://www.w3.org/1999/xlink" x="0px" y="0px"
	 width="512.5px" height="300px" viewBox="0 0 512.5 300" enable-background="new 0 0 512.5 300" xml:space="preserve">
<path fill="#CB613F" d="M369.425,152.9l8.811-21.056l-14.725-8.924c1.403-7.278,1.613-14.609,0.758-21.752l15.264-7.386
	l-6.792-21.789l-17.175,2.646c-3.526-6.244-7.994-11.986-13.326-16.968L349.269,42l-19.207-12.327l-11.676,13.332
	c-6.841-2.533-13.84-3.937-20.792-4.311l-4.785-16.909l-22.645,2.904l-0.389,18.118c-6.552,2.365-12.749,5.691-18.369,9.87
	l-14.853-10.078l-15.477,16.767l11.524,14.352c-1.577,2.692-3.003,5.506-4.241,8.461c-1.472,3.517-2.63,7.083-3.502,10.675
	l-18.019,1.844l-1.073,22.792l18.05,3.579c1.132,6.857,3.263,13.497,6.307,19.71l-12.558,12.929l13.83,18.147l15.898-8.729
	c5.188,4.509,11.115,8.317,17.704,11.247l-1.283,17.641l22.261,5.015l6.425-16.529c7.218,0.143,14.354-0.823,21.178-2.803
	l10.109,13.994l20.278-10.466l-5.583-16.439c5.575-4.485,10.508-9.872,14.584-16.04L369.425,152.9z M279.266,144.356
	c-19.218-8.041-28.284-30.137-20.242-49.355c8.04-19.214,30.136-28.279,49.349-20.236c19.223,8.035,28.286,30.132,20.247,49.348
	C320.583,143.331,298.484,152.396,279.266,144.356z"/>
<path fill="#CB613F" d="M209.086,192.336l5.572-13.318l-9.312-5.645c0.887-4.603,1.02-9.239,0.479-13.758l9.654-4.671l-4.295-13.781
	l-10.863,1.673c-2.23-3.949-5.057-7.581-8.429-10.731l4.446-9.911l-12.148-7.797l-7.385,8.432c-4.326-1.602-8.754-2.489-13.15-2.727
	l-3.027-10.694l-14.322,1.837l-0.246,11.459c-4.144,1.496-8.063,3.6-11.618,6.242l-9.394-6.374l-9.789,10.605l7.289,9.076
	c-0.997,1.704-1.899,3.483-2.682,5.353c-0.931,2.224-1.664,4.479-2.215,6.751l-11.396,1.167l-0.679,14.416l11.417,2.263
	c0.716,4.338,2.063,8.536,3.989,12.467l-7.942,8.177l8.747,11.479l10.056-5.521c3.281,2.852,7.03,5.261,11.198,7.113l-0.812,11.157
	l14.08,3.172l4.063-10.454c4.564,0.09,9.079-0.521,13.395-1.773l6.395,8.852l12.825-6.62l-3.53-10.397
	c3.525-2.837,6.646-6.244,9.224-10.145L209.086,192.336z M152.062,186.932c-12.155-5.085-17.889-19.061-12.803-31.217
	c5.085-12.152,19.061-17.886,31.212-12.799c12.158,5.082,17.891,19.058,12.807,31.212
	C178.194,186.283,164.217,192.017,152.062,186.932z"/>
<path fill="#CB613F" d="M276.944,237.014l2.247-10.482l-7.569-2.847c0.019-3.48-0.519-6.883-1.532-10.107l6.408-4.729l-5.019-9.472
	l-7.7,2.706c-2.168-2.577-4.728-4.843-7.619-6.68l1.89-7.843l-9.934-4.03l-4.235,7.164c-3.378-0.576-6.73-0.62-9.972-0.19
	l-3.672-7.393l-10.203,3.299l1.387,8.397c-2.819,1.658-5.393,3.729-7.625,6.145l-7.729-3.368l-5.695,9.08l6.561,5.628
	c-0.495,1.379-0.908,2.801-1.226,4.273c-0.375,1.75-0.602,3.496-0.694,5.229l-8.158,2.411l1.477,10.614l8.641,0.091
	c1.116,3.068,2.675,5.947,4.617,8.554l-4.68,7.055l7.954,7.182l6.585-5.404c2.785,1.633,5.851,2.879,9.145,3.661l0.935,8.254
	l10.71,0.39l1.536-8.186c3.344-0.559,6.557-1.623,9.534-3.126l5.878,5.586l8.455-6.585l-3.997-7.105
	c2.185-2.554,3.996-5.467,5.344-8.666L276.944,237.014z M234.585,240.866c-9.567-2.05-15.664-11.465-13.613-21.034
	c2.05-9.565,11.466-15.66,21.031-13.609c9.568,2.047,15.664,11.463,13.614,21.03C253.569,236.82,244.151,242.916,234.585,240.866z"
	/>
</svg>
