<?xml version="1.0" encoding="utf-8"?>
<!-- Generator: Adobe Illustrator 16.0.0, SVG Export Plug-In . SVG Version: 6.00 Build 0)  -->
<!DOCTYPE svg PUBLIC "-//W3C//DTD SVG 1.1//EN" "http://www.w3.org/Graphics/SVG/1.1/DTD/svg11.dtd">
<svg version="1.1" id="Modo_de_isolamento" xmlns="http://www.w3.org/2000/svg" xmlns:xlink="http://www.w3.org/1999/xlink" x="0px"
	 y="0px" width="77.004px" height="111.244px" viewBox="0 0 77.004 111.244" enable-background="new 0 0 77.004 111.244"
	 xml:space="preserve">
<g>
	<g>
		<path fill="#CB613F" d="M33.657,72.414v37.394c0,0,4.848,3.233,9.695,0V72.414H33.657z"/>
	</g>
	<path fill="#CB613F" d="M76.835,65.87L58.74,34.418c-0.391-0.682-1.033-1.851-1.428-2.533L39.218,0.518
		c-0.395-0.682-1.039-0.695-1.432-0.014L19.693,31.837c-0.395,0.682-1.035,1.792-1.43,2.473L0.167,65.872
		c-0.393,0.68-0.07,1.46,0.715,1.46h36.191c0.785,0,2.072,0,2.857,0h36.189C76.908,67.332,77.23,66.55,76.835,65.87z M38.503,62.332
		c0,0-25.725,0-29.166,0c1.828-3,28.035-51.096,29.166-53.053c1.129,1.957,27.336,50.053,29.164,53.053
		C64.226,62.332,38.503,62.332,38.503,62.332z"/>
	<g>
		<g>
			<path fill="#CB613F" d="M51.317,44.045c0.046-0.21,0.084-0.419,0.116-0.625c0.004-0.036,0.009-0.071,0.014-0.107
				c0.03-0.208,0.054-0.417,0.071-0.622v-1.488c-0.358-4.474-3.309-6.808-5.857-7.057c-0.42-0.041-0.812-0.061-1.179-0.061l0,0
				c-0.001,0-0.001,0-0.001,0c-2.945,0-4.358,2.273-5.977,4.202c-1.012-1.205-1.943-3.155-3.218-3.697
				c-0.02-0.007-0.037-0.014-0.057-0.021c-0.196-0.082-0.402-0.152-0.616-0.213c-0.327-0.094-0.673-0.167-1.051-0.212
				c-0.323-0.039-0.667-0.059-1.036-0.059c-0.367,0-0.759,0.02-1.179,0.061c-1.434,0.14-2.994,0.94-4.148,2.41
				c-0.898,1.143-1.552,2.689-1.708,4.647v1.488c0.016,0.208,0.042,0.418,0.071,0.632c0.004,0.03,0.008,0.06,0.013,0.09
				c0.031,0.21,0.072,0.423,0.117,0.638c0.006,0.023,0.011,0.048,0.017,0.072c0.809,3.628,3.732,7.929,10.505,13.083
				c0.002,0.001,0.005,0.004,0.008,0.006c0.228,0.174,0.458,0.347,0.695,0.522c0.121,0.089,0.246,0.18,0.369,0.271
				c0.128,0.093,0.252,0.186,0.383,0.28c0.273,0.197,0.55,0.395,0.835,0.595v0v0c0.285-0.2,0.562-0.397,0.835-0.595
				c0.13-0.094,0.256-0.187,0.385-0.28c0.121-0.09,0.246-0.181,0.367-0.271c0.236-0.175,0.468-0.349,0.695-0.522
				c0.002-0.001,0.005-0.004,0.008-0.006c5.908-4.497,8.889-8.345,10.089-11.662l0,0c0.001-0.001,0.001-0.001,0.001-0.002
				c0.174-0.481,0.31-0.951,0.413-1.41C51.304,44.104,51.311,44.075,51.317,44.045z"/>
		</g>
	</g>
</g>
</svg>
