<?xml version="1.0" encoding="utf-8"?>
<!-- Generator: Adobe Illustrator 16.0.0, SVG Export Plug-In . SVG Version: 6.00 Build 0)  -->
<!DOCTYPE svg PUBLIC "-//W3C//DTD SVG 1.1//EN" "http://www.w3.org/Graphics/SVG/1.1/DTD/svg11.dtd">
<svg version="1.1" id="Modo_de_isolamento" xmlns="http://www.w3.org/2000/svg" xmlns:xlink="http://www.w3.org/1999/xlink" x="0px"
	 y="0px" width="132.919px" height="142.616px" viewBox="0 0 132.919 142.616" enable-background="new 0 0 132.919 142.616"
	 xml:space="preserve">
<g>
	<polygon fill="#CB613F" points="93.474,6.487 94.473,6.769 94.473,6.768 	"/>
	<polygon fill="#CB613F" points="33.175,117.816 64.217,142.565 64.217,101.4 31.571,81.726 	"/>
	<polygon fill="#CB613F" points="31.436,78.495 64.217,98.25 64.217,48.745 29.729,33.975 	"/>
	<polygon fill="#CB613F" points="5.073,65.59 8.818,98.349 30.633,115.606 29.172,80.06 	"/>
	<polygon fill="#CB613F" points="0,21.224 4.686,62.209 29.04,76.831 27.23,32.804 	"/>
	<polygon fill="#CB613F" points="124.55,98.346 127.949,67.019 106.165,79.89 103.911,114.421 	"/>
	<polygon fill="#CB613F" points="128.312,63.668 132.919,21.21 109.343,31.169 106.377,76.628 	"/>
	<polygon fill="#CB613F" points="67.217,102.605 67.217,142.616 100.81,116.641 102.979,81.549 	"/>
	<polygon fill="#CB613F" points="67.217,48.751 67.217,99.472 103.312,78.29 106.188,32.342 	"/>
	<polygon fill="#CB613F" points="106.699,29.029 131.907,18.336 95.685,8.147 71.491,16.963 	"/>
	<polygon fill="#CB613F" points="63.39,17.041 37.589,8.199 1.416,18.38 28.363,29.804 	"/>
	<polygon fill="#CB613F" points="66.545,45.99 102.968,30.605 67.454,18.434 32.009,31.349 	"/>
	<polygon fill="#CB613F" points="66.717,0 42.161,6.912 67.426,15.57 91.233,6.896 	"/>
	<polygon fill="#CB613F" points="94.473,6.769 94.477,6.778 94.491,6.773 	"/>
	<polygon fill="#CB613F" points="94.473,6.768 94.603,6.805 94.473,6.768 	"/>
	<polygon fill="#CB613F" points="28.669,32.433 28.673,32.553 28.82,32.498 	"/>
	<polygon fill="#CB613F" points="28.404,32.13 28.444,32.116 28.403,32.098 	"/>
	<polygon fill="#CB613F" points="107.195,32.054 107.208,32.058 107.208,32.048 	"/>
</g>
</svg>
