<?xml version="1.0" encoding="utf-8"?>
<!-- Generator: Adobe Illustrator 16.0.0, SVG Export Plug-In . SVG Version: 6.00 Build 0)  -->
<!DOCTYPE svg PUBLIC "-//W3C//DTD SVG 1.1//EN" "http://www.w3.org/Graphics/SVG/1.1/DTD/svg11.dtd">
<svg version="1.1" id="Modo_de_isolamento" xmlns="http://www.w3.org/2000/svg" xmlns:xlink="http://www.w3.org/1999/xlink" x="0px"
	 y="0px" width="120px" height="120px" viewBox="0 0 120 120" enable-background="new 0 0 120 120" xml:space="preserve">
<g>
	<polygon fill="#CB613F" points="82.73,5.459 83.572,5.694 83.572,5.694 	"/>
	<polygon fill="#CB613F" points="31.994,99.131 58.113,119.957 58.113,85.318 30.645,68.766 	"/>
	<polygon fill="#CB613F" points="30.531,66.047 58.113,82.668 58.113,41.015 29.095,28.588 	"/>
	<polygon fill="#CB613F" points="8.349,55.188 11.499,82.752 29.854,97.272 28.625,67.363 	"/>
	<polygon fill="#CB613F" points="4.081,17.858 8.022,52.344 28.515,64.647 26.992,27.602 	"/>
	<polygon fill="#CB613F" points="108.877,82.75 111.738,56.391 93.408,67.221 91.514,96.275 	"/>
	<polygon fill="#CB613F" points="112.043,53.571 115.92,17.847 96.082,26.227 93.588,64.478 	"/>
	<polygon fill="#CB613F" points="60.639,86.334 60.639,120 88.904,98.144 90.729,68.615 	"/>
	<polygon fill="#CB613F" points="60.639,41.02 60.639,83.696 91.008,65.875 93.428,27.213 	"/>
	<polygon fill="#CB613F" points="93.859,24.426 115.068,15.428 84.59,6.854 64.234,14.272 	"/>
	<polygon fill="#CB613F" points="57.417,14.339 35.708,6.899 5.271,15.465 27.944,25.077 	"/>
	<polygon fill="#CB613F" points="60.072,38.696 90.719,25.752 60.836,15.511 31.013,26.378 	"/>
	<polygon fill="#CB613F" points="60.216,0 39.555,5.815 60.814,13.101 80.846,5.802 	"/>
	<polygon fill="#CB613F" points="83.572,5.694 83.576,5.702 83.586,5.698 	"/>
	<path fill="#CB613F" d="M83.572,5.694l0.109,0.031L83.572,5.694z"/>
	<polygon fill="#CB613F" points="28.203,27.29 28.206,27.391 28.33,27.345 	"/>
	<polygon fill="#CB613F" points="27.979,27.034 28.014,27.023 27.979,27.008 	"/>
	<polygon fill="#CB613F" points="94.275,26.971 94.287,26.975 94.287,26.966 	"/>
</g>
</svg>
