<?xml version="1.0" encoding="utf-8"?>
<!-- Generator: Adobe Illustrator 16.0.0, SVG Export Plug-In . SVG Version: 6.00 Build 0)  -->
<!DOCTYPE svg PUBLIC "-//W3C//DTD SVG 1.1//EN" "http://www.w3.org/Graphics/SVG/1.1/DTD/svg11.dtd">
<svg version="1.1" id="Modo_de_isolamento" xmlns="http://www.w3.org/2000/svg" xmlns:xlink="http://www.w3.org/1999/xlink" x="0px"
	 y="0px" width="120px" height="120px" viewBox="-21.498 -4.378 120 120" enable-background="new -21.498 -4.378 120 120"
	 xml:space="preserve">
<g>
	<g>
		<path fill="#CB613F" d="M33.276,73.735v40.337c0,0,5.229,3.487,10.458,0V73.735H33.276z"/>
	</g>
	<path fill="#CB613F" d="M79.852,66.677L60.333,32.749c-0.421-0.736-1.114-1.997-1.54-2.732L39.274-3.819
		c-0.426-0.735-1.121-0.75-1.544-0.015L18.212,29.965c-0.426,0.736-1.116,1.933-1.542,2.668L-2.85,66.679
		c-0.424,0.733-0.075,1.575,0.771,1.575h39.04c0.846,0,2.234,0,3.081,0H79.08C79.931,68.254,80.278,67.41,79.852,66.677z
		 M38.503,62.86c0,0-27.75,0-31.461,0C9.014,59.624,37.283,7.743,38.503,5.632c1.218,2.11,29.487,53.992,31.459,57.228
		C66.251,62.86,38.503,62.86,38.503,62.86z"/>
	<g>
		<g>
			<path fill="#CB613F" d="M52.325,43.134c0.05-0.227,0.09-0.452,0.126-0.674c0.004-0.039,0.009-0.076,0.015-0.115
				c0.032-0.224,0.059-0.45,0.076-0.671v-1.605c-0.386-4.826-3.569-7.344-6.317-7.612c-0.453-0.044-0.875-0.066-1.271-0.066l0,0
				c-0.002,0-0.002,0-0.002,0c-3.176,0-4.7,2.452-6.447,4.533c-1.091-1.3-2.096-3.404-3.471-3.988
				c-0.022-0.007-0.04-0.015-0.062-0.022c-0.211-0.089-0.434-0.164-0.665-0.23c-0.352-0.101-0.726-0.18-1.133-0.229
				c-0.349-0.042-0.72-0.063-1.118-0.063c-0.396,0-0.818,0.021-1.271,0.066c-1.547,0.151-3.23,1.014-4.475,2.6
				c-0.969,1.233-1.674,2.9-1.842,5.013v1.605c0.017,0.224,0.045,0.451,0.076,0.682c0.004,0.032,0.009,0.064,0.015,0.097
				c0.033,0.227,0.077,0.456,0.125,0.688c0.007,0.025,0.012,0.052,0.019,0.078c0.873,3.913,4.026,8.553,11.332,14.113
				c0.002,0.001,0.006,0.004,0.009,0.006c0.246,0.188,0.494,0.375,0.75,0.562c0.13,0.097,0.265,0.195,0.398,0.293
				c0.138,0.102,0.272,0.2,0.413,0.303c0.294,0.211,0.593,0.426,0.9,0.642l0,0l0,0c0.308-0.216,0.606-0.428,0.9-0.642
				c0.141-0.103,0.277-0.201,0.417-0.303c0.13-0.097,0.265-0.195,0.395-0.293c0.255-0.188,0.505-0.376,0.75-0.562
				c0.002-0.001,0.005-0.004,0.009-0.006c6.373-4.852,9.589-9.002,10.883-12.58l0,0c0.001-0.001,0.001-0.001,0.001-0.002
				c0.188-0.519,0.334-1.026,0.445-1.521C52.312,43.198,52.318,43.167,52.325,43.134z"/>
		</g>
	</g>
</g>
</svg>
